<mxfile host="65bd71144e">
    <diagram name="第 1 页" id="XfoNmngTkiO264PHcStm">
        <mxGraphModel dx="2269" dy="1609" grid="1" gridSize="10" guides="1" tooltips="1" connect="1" arrows="1" fold="1" page="1" pageScale="1" pageWidth="827" pageHeight="1169" math="0" shadow="0">
            <root>
                <mxCell id="0"/>
                <mxCell id="1" parent="0"/>
                <mxCell id="T9Qwz79KRqM5nQ-3ivRh-36" style="edgeStyle=orthogonalEdgeStyle;rounded=0;orthogonalLoop=1;jettySize=auto;html=1;entryX=0.5;entryY=0;entryDx=0;entryDy=0;" parent="1" source="T9Qwz79KRqM5nQ-3ivRh-30" target="T9Qwz79KRqM5nQ-3ivRh-31" edge="1">
                    <mxGeometry relative="1" as="geometry"/>
                </mxCell>
                <mxCell id="T9Qwz79KRqM5nQ-3ivRh-30" value="" style="ellipse;html=1;shape=startState;fillColor=#000000;strokeColor=#ff0000;" parent="1" vertex="1">
                    <mxGeometry x="590" y="90" width="30" height="30" as="geometry"/>
                </mxCell>
                <mxCell id="T9Qwz79KRqM5nQ-3ivRh-35" value="" style="edgeStyle=orthogonalEdgeStyle;rounded=0;orthogonalLoop=1;jettySize=auto;html=1;" parent="1" source="T9Qwz79KRqM5nQ-3ivRh-31" target="T9Qwz79KRqM5nQ-3ivRh-32" edge="1">
                    <mxGeometry relative="1" as="geometry"/>
                </mxCell>
                <mxCell id="T9Qwz79KRqM5nQ-3ivRh-31" value="&lt;font style=&quot;font-size: 18px;&quot;&gt;输入账号密码&lt;/font&gt;" style="rounded=1;whiteSpace=wrap;html=1;" parent="1" vertex="1">
                    <mxGeometry x="545" y="160" width="120" height="60" as="geometry"/>
                </mxCell>
                <mxCell id="T9Qwz79KRqM5nQ-3ivRh-39" style="edgeStyle=orthogonalEdgeStyle;rounded=0;orthogonalLoop=1;jettySize=auto;html=1;entryX=0.5;entryY=0;entryDx=0;entryDy=0;" parent="1" source="T9Qwz79KRqM5nQ-3ivRh-32" target="T9Qwz79KRqM5nQ-3ivRh-38" edge="1">
                    <mxGeometry relative="1" as="geometry"/>
                </mxCell>
                <mxCell id="T9Qwz79KRqM5nQ-3ivRh-32" value="&lt;font style=&quot;font-size: 18px;&quot;&gt;人机验证&lt;/font&gt;" style="rounded=1;whiteSpace=wrap;html=1;" parent="1" vertex="1">
                    <mxGeometry x="545" y="250" width="120" height="60" as="geometry"/>
                </mxCell>
                <mxCell id="T9Qwz79KRqM5nQ-3ivRh-41" style="edgeStyle=orthogonalEdgeStyle;rounded=0;orthogonalLoop=1;jettySize=auto;html=1;entryX=0.5;entryY=0;entryDx=0;entryDy=0;" parent="1" source="T9Qwz79KRqM5nQ-3ivRh-38" target="T9Qwz79KRqM5nQ-3ivRh-40" edge="1">
                    <mxGeometry relative="1" as="geometry"/>
                </mxCell>
                <mxCell id="T9Qwz79KRqM5nQ-3ivRh-47" style="edgeStyle=orthogonalEdgeStyle;rounded=0;orthogonalLoop=1;jettySize=auto;html=1;" parent="1" source="T9Qwz79KRqM5nQ-3ivRh-38" target="T9Qwz79KRqM5nQ-3ivRh-46" edge="1">
                    <mxGeometry relative="1" as="geometry"/>
                </mxCell>
                <mxCell id="T9Qwz79KRqM5nQ-3ivRh-38" value="" style="rhombus;whiteSpace=wrap;html=1;" parent="1" vertex="1">
                    <mxGeometry x="565" y="340" width="80" height="80" as="geometry"/>
                </mxCell>
                <mxCell id="T9Qwz79KRqM5nQ-3ivRh-51" style="edgeStyle=orthogonalEdgeStyle;rounded=0;orthogonalLoop=1;jettySize=auto;html=1;entryX=0.5;entryY=0;entryDx=0;entryDy=0;" parent="1" source="T9Qwz79KRqM5nQ-3ivRh-40" target="T9Qwz79KRqM5nQ-3ivRh-50" edge="1">
                    <mxGeometry relative="1" as="geometry"/>
                </mxCell>
                <mxCell id="T9Qwz79KRqM5nQ-3ivRh-40" value="&lt;span style=&quot;font-size: 18px;&quot;&gt;登录成功&lt;/span&gt;" style="rounded=1;whiteSpace=wrap;html=1;" parent="1" vertex="1">
                    <mxGeometry x="545" y="445" width="120" height="60" as="geometry"/>
                </mxCell>
                <mxCell id="T9Qwz79KRqM5nQ-3ivRh-49" style="edgeStyle=orthogonalEdgeStyle;rounded=0;orthogonalLoop=1;jettySize=auto;html=1;entryX=1;entryY=0.5;entryDx=0;entryDy=0;exitX=1;exitY=0.5;exitDx=0;exitDy=0;" parent="1" source="T9Qwz79KRqM5nQ-3ivRh-46" target="T9Qwz79KRqM5nQ-3ivRh-31" edge="1">
                    <mxGeometry relative="1" as="geometry">
                        <Array as="points">
                            <mxPoint x="870" y="475"/>
                            <mxPoint x="870" y="190"/>
                        </Array>
                    </mxGeometry>
                </mxCell>
                <mxCell id="T9Qwz79KRqM5nQ-3ivRh-46" value="&lt;font style=&quot;font-size: 18px;&quot;&gt;登录失败&lt;/font&gt;" style="rounded=1;whiteSpace=wrap;html=1;" parent="1" vertex="1">
                    <mxGeometry x="730" y="445" width="120" height="60" as="geometry"/>
                </mxCell>
                <mxCell id="T9Qwz79KRqM5nQ-3ivRh-50" value="" style="ellipse;html=1;shape=endState;fillColor=#000000;strokeColor=#ff0000;" parent="1" vertex="1">
                    <mxGeometry x="590" y="555" width="30" height="30" as="geometry"/>
                </mxCell>
                <mxCell id="T9Qwz79KRqM5nQ-3ivRh-55" style="edgeStyle=orthogonalEdgeStyle;rounded=0;orthogonalLoop=1;jettySize=auto;html=1;entryX=0.5;entryY=0;entryDx=0;entryDy=0;" parent="1" source="T9Qwz79KRqM5nQ-3ivRh-52" target="T9Qwz79KRqM5nQ-3ivRh-53" edge="1">
                    <mxGeometry relative="1" as="geometry"/>
                </mxCell>
                <mxCell id="T9Qwz79KRqM5nQ-3ivRh-52" value="" style="ellipse;html=1;shape=startState;fillColor=#000000;strokeColor=#ff0000;" parent="1" vertex="1">
                    <mxGeometry x="1110" y="90" width="30" height="30" as="geometry"/>
                </mxCell>
                <mxCell id="T9Qwz79KRqM5nQ-3ivRh-57" value="" style="edgeStyle=orthogonalEdgeStyle;rounded=0;orthogonalLoop=1;jettySize=auto;html=1;" parent="1" source="T9Qwz79KRqM5nQ-3ivRh-53" target="T9Qwz79KRqM5nQ-3ivRh-56" edge="1">
                    <mxGeometry relative="1" as="geometry"/>
                </mxCell>
                <mxCell id="T9Qwz79KRqM5nQ-3ivRh-53" value="&lt;font style=&quot;font-size: 18px;&quot;&gt;点击定制路线&lt;/font&gt;" style="rounded=1;whiteSpace=wrap;html=1;" parent="1" vertex="1">
                    <mxGeometry x="1065" y="160" width="120" height="60" as="geometry"/>
                </mxCell>
                <mxCell id="T9Qwz79KRqM5nQ-3ivRh-69" value="" style="edgeStyle=orthogonalEdgeStyle;rounded=0;orthogonalLoop=1;jettySize=auto;html=1;" parent="1" source="T9Qwz79KRqM5nQ-3ivRh-56" target="T9Qwz79KRqM5nQ-3ivRh-62" edge="1">
                    <mxGeometry relative="1" as="geometry"/>
                </mxCell>
                <mxCell id="T9Qwz79KRqM5nQ-3ivRh-56" value="&lt;font style=&quot;font-size: 18px;&quot;&gt;根据提示输入需求并提交&lt;/font&gt;" style="rounded=1;whiteSpace=wrap;html=1;" parent="1" vertex="1">
                    <mxGeometry x="1065" y="250" width="120" height="60" as="geometry"/>
                </mxCell>
                <mxCell id="T9Qwz79KRqM5nQ-3ivRh-73" value="" style="edgeStyle=orthogonalEdgeStyle;rounded=0;orthogonalLoop=1;jettySize=auto;html=1;" parent="1" source="T9Qwz79KRqM5nQ-3ivRh-62" target="T9Qwz79KRqM5nQ-3ivRh-70" edge="1">
                    <mxGeometry relative="1" as="geometry"/>
                </mxCell>
                <mxCell id="T9Qwz79KRqM5nQ-3ivRh-62" value="&lt;font style=&quot;font-size: 18px;&quot;&gt;查看计划详情&lt;/font&gt;" style="rounded=1;whiteSpace=wrap;html=1;" parent="1" vertex="1">
                    <mxGeometry x="1065" y="340" width="120" height="60" as="geometry"/>
                </mxCell>
                <mxCell id="T9Qwz79KRqM5nQ-3ivRh-82" value="" style="edgeStyle=orthogonalEdgeStyle;rounded=0;orthogonalLoop=1;jettySize=auto;html=1;" parent="1" source="T9Qwz79KRqM5nQ-3ivRh-70" target="T9Qwz79KRqM5nQ-3ivRh-71" edge="1">
                    <mxGeometry relative="1" as="geometry"/>
                </mxCell>
                <mxCell id="T9Qwz79KRqM5nQ-3ivRh-86" style="edgeStyle=orthogonalEdgeStyle;rounded=0;orthogonalLoop=1;jettySize=auto;html=1;entryX=1;entryY=0.5;entryDx=0;entryDy=0;" parent="1" source="T9Qwz79KRqM5nQ-3ivRh-70" target="T9Qwz79KRqM5nQ-3ivRh-81" edge="1">
                    <mxGeometry relative="1" as="geometry">
                        <Array as="points">
                            <mxPoint x="1220" y="470"/>
                            <mxPoint x="1220" y="680"/>
                            <mxPoint x="1165" y="680"/>
                        </Array>
                    </mxGeometry>
                </mxCell>
                <mxCell id="T9Qwz79KRqM5nQ-3ivRh-70" value="" style="rhombus;whiteSpace=wrap;html=1;" parent="1" vertex="1">
                    <mxGeometry x="1085" y="430" width="80" height="80" as="geometry"/>
                </mxCell>
                <mxCell id="T9Qwz79KRqM5nQ-3ivRh-83" value="" style="edgeStyle=orthogonalEdgeStyle;rounded=0;orthogonalLoop=1;jettySize=auto;html=1;" parent="1" source="T9Qwz79KRqM5nQ-3ivRh-71" target="T9Qwz79KRqM5nQ-3ivRh-81" edge="1">
                    <mxGeometry relative="1" as="geometry"/>
                </mxCell>
                <mxCell id="T9Qwz79KRqM5nQ-3ivRh-71" value="&lt;font style=&quot;font-size: 18px;&quot;&gt;查看景点详情&lt;/font&gt;" style="rounded=1;whiteSpace=wrap;html=1;" parent="1" vertex="1">
                    <mxGeometry x="1065" y="540" width="120" height="60" as="geometry"/>
                </mxCell>
                <mxCell id="T9Qwz79KRqM5nQ-3ivRh-89" value="" style="edgeStyle=orthogonalEdgeStyle;rounded=0;orthogonalLoop=1;jettySize=auto;html=1;" parent="1" source="T9Qwz79KRqM5nQ-3ivRh-81" target="T9Qwz79KRqM5nQ-3ivRh-88" edge="1">
                    <mxGeometry relative="1" as="geometry"/>
                </mxCell>
                <mxCell id="T9Qwz79KRqM5nQ-3ivRh-81" value="" style="rhombus;whiteSpace=wrap;html=1;" parent="1" vertex="1">
                    <mxGeometry x="1085" y="635" width="80" height="80" as="geometry"/>
                </mxCell>
                <mxCell id="T9Qwz79KRqM5nQ-3ivRh-91" value="" style="edgeStyle=orthogonalEdgeStyle;rounded=0;orthogonalLoop=1;jettySize=auto;html=1;" parent="1" source="T9Qwz79KRqM5nQ-3ivRh-88" target="T9Qwz79KRqM5nQ-3ivRh-90" edge="1">
                    <mxGeometry relative="1" as="geometry"/>
                </mxCell>
                <mxCell id="T9Qwz79KRqM5nQ-3ivRh-88" value="&lt;font style=&quot;font-size: 18px;&quot;&gt;加入计划&lt;/font&gt;" style="rounded=1;whiteSpace=wrap;html=1;" parent="1" vertex="1">
                    <mxGeometry x="1065" y="750" width="120" height="60" as="geometry"/>
                </mxCell>
                <mxCell id="T9Qwz79KRqM5nQ-3ivRh-90" value="" style="ellipse;html=1;shape=endState;fillColor=#000000;strokeColor=#ff0000;" parent="1" vertex="1">
                    <mxGeometry x="1110" y="860" width="30" height="30" as="geometry"/>
                </mxCell>
                <mxCell id="T9Qwz79KRqM5nQ-3ivRh-95" value="" style="edgeStyle=orthogonalEdgeStyle;rounded=0;orthogonalLoop=1;jettySize=auto;html=1;" parent="1" source="T9Qwz79KRqM5nQ-3ivRh-93" target="T9Qwz79KRqM5nQ-3ivRh-94" edge="1">
                    <mxGeometry relative="1" as="geometry"/>
                </mxCell>
                <mxCell id="T9Qwz79KRqM5nQ-3ivRh-93" value="" style="ellipse;html=1;shape=startState;fillColor=#000000;strokeColor=#ff0000;" parent="1" vertex="1">
                    <mxGeometry x="1675" y="90" width="30" height="30" as="geometry"/>
                </mxCell>
                <mxCell id="T9Qwz79KRqM5nQ-3ivRh-99" value="" style="edgeStyle=orthogonalEdgeStyle;rounded=0;orthogonalLoop=1;jettySize=auto;html=1;" parent="1" source="T9Qwz79KRqM5nQ-3ivRh-94" target="T9Qwz79KRqM5nQ-3ivRh-96" edge="1">
                    <mxGeometry relative="1" as="geometry"/>
                </mxCell>
                <mxCell id="T9Qwz79KRqM5nQ-3ivRh-94" value="&lt;font style=&quot;font-size: 18px;&quot;&gt;点击天气预报&lt;/font&gt;" style="rounded=1;whiteSpace=wrap;html=1;" parent="1" vertex="1">
                    <mxGeometry x="1630" y="160" width="120" height="60" as="geometry"/>
                </mxCell>
                <mxCell id="T9Qwz79KRqM5nQ-3ivRh-100" style="edgeStyle=orthogonalEdgeStyle;rounded=0;orthogonalLoop=1;jettySize=auto;html=1;entryX=0.5;entryY=0;entryDx=0;entryDy=0;" parent="1" source="T9Qwz79KRqM5nQ-3ivRh-96" target="T9Qwz79KRqM5nQ-3ivRh-97" edge="1">
                    <mxGeometry relative="1" as="geometry">
                        <mxPoint x="1570" y="370" as="targetPoint"/>
                    </mxGeometry>
                </mxCell>
                <mxCell id="T9Qwz79KRqM5nQ-3ivRh-101" style="edgeStyle=orthogonalEdgeStyle;rounded=0;orthogonalLoop=1;jettySize=auto;html=1;entryX=0.5;entryY=0;entryDx=0;entryDy=0;exitX=1;exitY=0.5;exitDx=0;exitDy=0;" parent="1" source="T9Qwz79KRqM5nQ-3ivRh-96" target="T9Qwz79KRqM5nQ-3ivRh-98" edge="1">
                    <mxGeometry relative="1" as="geometry">
                        <mxPoint x="1790" y="370" as="targetPoint"/>
                    </mxGeometry>
                </mxCell>
                <mxCell id="T9Qwz79KRqM5nQ-3ivRh-96" value="" style="rhombus;whiteSpace=wrap;html=1;" parent="1" vertex="1">
                    <mxGeometry x="1650" y="260" width="80" height="80" as="geometry"/>
                </mxCell>
                <mxCell id="T9Qwz79KRqM5nQ-3ivRh-111" value="" style="edgeStyle=orthogonalEdgeStyle;rounded=0;orthogonalLoop=1;jettySize=auto;html=1;" parent="1" source="T9Qwz79KRqM5nQ-3ivRh-97" target="T9Qwz79KRqM5nQ-3ivRh-110" edge="1">
                    <mxGeometry relative="1" as="geometry"/>
                </mxCell>
                <mxCell id="T9Qwz79KRqM5nQ-3ivRh-97" value="&lt;font style=&quot;font-size: 18px;&quot;&gt;点击实时调整&lt;/font&gt;" style="rounded=1;whiteSpace=wrap;html=1;" parent="1" vertex="1">
                    <mxGeometry x="1500" y="350" width="120" height="60" as="geometry"/>
                </mxCell>
                <mxCell id="T9Qwz79KRqM5nQ-3ivRh-103" value="" style="edgeStyle=orthogonalEdgeStyle;rounded=0;orthogonalLoop=1;jettySize=auto;html=1;" parent="1" source="T9Qwz79KRqM5nQ-3ivRh-98" target="T9Qwz79KRqM5nQ-3ivRh-102" edge="1">
                    <mxGeometry relative="1" as="geometry"/>
                </mxCell>
                <mxCell id="T9Qwz79KRqM5nQ-3ivRh-98" value="&lt;font style=&quot;font-size: 18px;&quot;&gt;点击未雨绸缪&lt;/font&gt;" style="rounded=1;whiteSpace=wrap;html=1;" parent="1" vertex="1">
                    <mxGeometry x="1730" y="350" width="120" height="60" as="geometry"/>
                </mxCell>
                <mxCell id="T9Qwz79KRqM5nQ-3ivRh-105" value="" style="edgeStyle=orthogonalEdgeStyle;rounded=0;orthogonalLoop=1;jettySize=auto;html=1;" parent="1" source="T9Qwz79KRqM5nQ-3ivRh-102" target="T9Qwz79KRqM5nQ-3ivRh-104" edge="1">
                    <mxGeometry relative="1" as="geometry"/>
                </mxCell>
                <mxCell id="T9Qwz79KRqM5nQ-3ivRh-108" style="edgeStyle=orthogonalEdgeStyle;rounded=0;orthogonalLoop=1;jettySize=auto;html=1;entryX=0.5;entryY=0;entryDx=0;entryDy=0;" parent="1" source="T9Qwz79KRqM5nQ-3ivRh-102" target="T9Qwz79KRqM5nQ-3ivRh-106" edge="1">
                    <mxGeometry relative="1" as="geometry"/>
                </mxCell>
                <mxCell id="T9Qwz79KRqM5nQ-3ivRh-102" value="" style="rhombus;whiteSpace=wrap;html=1;" parent="1" vertex="1">
                    <mxGeometry x="1750" y="450" width="80" height="80" as="geometry"/>
                </mxCell>
                <mxCell id="T9Qwz79KRqM5nQ-3ivRh-109" value="" style="edgeStyle=orthogonalEdgeStyle;rounded=0;orthogonalLoop=1;jettySize=auto;html=1;" parent="1" source="T9Qwz79KRqM5nQ-3ivRh-104" target="T9Qwz79KRqM5nQ-3ivRh-107" edge="1">
                    <mxGeometry relative="1" as="geometry"/>
                </mxCell>
                <mxCell id="T9Qwz79KRqM5nQ-3ivRh-104" value="&lt;font style=&quot;font-size: 18px;&quot;&gt;使用智能调整&lt;/font&gt;" style="rounded=1;whiteSpace=wrap;html=1;" parent="1" vertex="1">
                    <mxGeometry x="1730" y="570" width="120" height="60" as="geometry"/>
                </mxCell>
                <mxCell id="T9Qwz79KRqM5nQ-3ivRh-115" value="" style="edgeStyle=orthogonalEdgeStyle;rounded=0;orthogonalLoop=1;jettySize=auto;html=1;" parent="1" source="T9Qwz79KRqM5nQ-3ivRh-106" target="T9Qwz79KRqM5nQ-3ivRh-114" edge="1">
                    <mxGeometry relative="1" as="geometry"/>
                </mxCell>
                <mxCell id="T9Qwz79KRqM5nQ-3ivRh-106" value="&lt;font style=&quot;font-size: 18px;&quot;&gt;选择不调整&lt;/font&gt;" style="rounded=1;whiteSpace=wrap;html=1;" parent="1" vertex="1">
                    <mxGeometry x="1900" y="570" width="120" height="60" as="geometry"/>
                </mxCell>
                <mxCell id="T9Qwz79KRqM5nQ-3ivRh-113" value="" style="edgeStyle=orthogonalEdgeStyle;rounded=0;orthogonalLoop=1;jettySize=auto;html=1;" parent="1" source="T9Qwz79KRqM5nQ-3ivRh-107" target="T9Qwz79KRqM5nQ-3ivRh-112" edge="1">
                    <mxGeometry relative="1" as="geometry"/>
                </mxCell>
                <mxCell id="T9Qwz79KRqM5nQ-3ivRh-107" value="&lt;font style=&quot;font-size: 18px;&quot;&gt;确认智能调整&lt;/font&gt;" style="rounded=1;whiteSpace=wrap;html=1;" parent="1" vertex="1">
                    <mxGeometry x="1730" y="670" width="120" height="60" as="geometry"/>
                </mxCell>
                <mxCell id="T9Qwz79KRqM5nQ-3ivRh-110" value="" style="ellipse;html=1;shape=endState;fillColor=#000000;strokeColor=#ff0000;" parent="1" vertex="1">
                    <mxGeometry x="1545" y="460" width="30" height="30" as="geometry"/>
                </mxCell>
                <mxCell id="T9Qwz79KRqM5nQ-3ivRh-112" value="" style="ellipse;html=1;shape=endState;fillColor=#000000;strokeColor=#ff0000;" parent="1" vertex="1">
                    <mxGeometry x="1775" y="780" width="30" height="30" as="geometry"/>
                </mxCell>
                <mxCell id="T9Qwz79KRqM5nQ-3ivRh-114" value="" style="ellipse;html=1;shape=endState;fillColor=#000000;strokeColor=#ff0000;" parent="1" vertex="1">
                    <mxGeometry x="1945" y="680" width="30" height="30" as="geometry"/>
                </mxCell>
                <mxCell id="T9Qwz79KRqM5nQ-3ivRh-118" value="" style="edgeStyle=orthogonalEdgeStyle;rounded=0;orthogonalLoop=1;jettySize=auto;html=1;" parent="1" source="T9Qwz79KRqM5nQ-3ivRh-116" target="T9Qwz79KRqM5nQ-3ivRh-117" edge="1">
                    <mxGeometry relative="1" as="geometry"/>
                </mxCell>
                <mxCell id="T9Qwz79KRqM5nQ-3ivRh-116" value="" style="ellipse;html=1;shape=startState;fillColor=#000000;strokeColor=#ff0000;" parent="1" vertex="1">
                    <mxGeometry x="2365" y="90" width="30" height="30" as="geometry"/>
                </mxCell>
                <mxCell id="T9Qwz79KRqM5nQ-3ivRh-120" value="" style="edgeStyle=orthogonalEdgeStyle;rounded=0;orthogonalLoop=1;jettySize=auto;html=1;" parent="1" source="T9Qwz79KRqM5nQ-3ivRh-117" target="T9Qwz79KRqM5nQ-3ivRh-119" edge="1">
                    <mxGeometry relative="1" as="geometry"/>
                </mxCell>
                <mxCell id="T9Qwz79KRqM5nQ-3ivRh-117" value="&lt;font style=&quot;font-size: 18px;&quot;&gt;点击紧急事件处理&lt;/font&gt;" style="rounded=1;whiteSpace=wrap;html=1;" parent="1" vertex="1">
                    <mxGeometry x="2320" y="160" width="120" height="60" as="geometry"/>
                </mxCell>
                <mxCell id="T9Qwz79KRqM5nQ-3ivRh-122" value="" style="edgeStyle=orthogonalEdgeStyle;rounded=0;orthogonalLoop=1;jettySize=auto;html=1;" parent="1" source="T9Qwz79KRqM5nQ-3ivRh-119" target="T9Qwz79KRqM5nQ-3ivRh-121" edge="1">
                    <mxGeometry relative="1" as="geometry"/>
                </mxCell>
                <mxCell id="T9Qwz79KRqM5nQ-3ivRh-119" value="&lt;font style=&quot;font-size: 18px;&quot;&gt;点击智能调整路线&lt;/font&gt;" style="rounded=1;whiteSpace=wrap;html=1;" parent="1" vertex="1">
                    <mxGeometry x="2320" y="260" width="120" height="60" as="geometry"/>
                </mxCell>
                <mxCell id="T9Qwz79KRqM5nQ-3ivRh-125" value="" style="edgeStyle=orthogonalEdgeStyle;rounded=0;orthogonalLoop=1;jettySize=auto;html=1;" parent="1" source="T9Qwz79KRqM5nQ-3ivRh-121" target="T9Qwz79KRqM5nQ-3ivRh-123" edge="1">
                    <mxGeometry relative="1" as="geometry"/>
                </mxCell>
                <mxCell id="T9Qwz79KRqM5nQ-3ivRh-126" style="edgeStyle=orthogonalEdgeStyle;rounded=0;orthogonalLoop=1;jettySize=auto;html=1;entryX=0.5;entryY=0;entryDx=0;entryDy=0;" parent="1" source="T9Qwz79KRqM5nQ-3ivRh-121" target="T9Qwz79KRqM5nQ-3ivRh-124" edge="1">
                    <mxGeometry relative="1" as="geometry"/>
                </mxCell>
                <mxCell id="T9Qwz79KRqM5nQ-3ivRh-121" value="" style="rhombus;whiteSpace=wrap;html=1;" parent="1" vertex="1">
                    <mxGeometry x="2340" y="360" width="80" height="80" as="geometry"/>
                </mxCell>
                <mxCell id="T9Qwz79KRqM5nQ-3ivRh-129" value="" style="edgeStyle=orthogonalEdgeStyle;rounded=0;orthogonalLoop=1;jettySize=auto;html=1;" parent="1" source="T9Qwz79KRqM5nQ-3ivRh-123" target="T9Qwz79KRqM5nQ-3ivRh-127" edge="1">
                    <mxGeometry relative="1" as="geometry"/>
                </mxCell>
                <mxCell id="T9Qwz79KRqM5nQ-3ivRh-123" value="&lt;font style=&quot;font-size: 18px;&quot;&gt;确认修改&lt;/font&gt;" style="rounded=1;whiteSpace=wrap;html=1;" parent="1" vertex="1">
                    <mxGeometry x="2320" y="480" width="120" height="60" as="geometry"/>
                </mxCell>
                <mxCell id="T9Qwz79KRqM5nQ-3ivRh-130" value="" style="edgeStyle=orthogonalEdgeStyle;rounded=0;orthogonalLoop=1;jettySize=auto;html=1;" parent="1" source="T9Qwz79KRqM5nQ-3ivRh-124" target="T9Qwz79KRqM5nQ-3ivRh-128" edge="1">
                    <mxGeometry relative="1" as="geometry"/>
                </mxCell>
                <mxCell id="T9Qwz79KRqM5nQ-3ivRh-124" value="&lt;font style=&quot;font-size: 18px;&quot;&gt;选择不修改&lt;/font&gt;" style="rounded=1;whiteSpace=wrap;html=1;" parent="1" vertex="1">
                    <mxGeometry x="2520" y="480" width="120" height="60" as="geometry"/>
                </mxCell>
                <mxCell id="T9Qwz79KRqM5nQ-3ivRh-127" value="" style="ellipse;html=1;shape=endState;fillColor=#000000;strokeColor=#ff0000;" parent="1" vertex="1">
                    <mxGeometry x="2366" y="585" width="30" height="30" as="geometry"/>
                </mxCell>
                <mxCell id="T9Qwz79KRqM5nQ-3ivRh-128" value="" style="ellipse;html=1;shape=endState;fillColor=#000000;strokeColor=#ff0000;" parent="1" vertex="1">
                    <mxGeometry x="2565" y="590" width="30" height="30" as="geometry"/>
                </mxCell>
                <mxCell id="T9Qwz79KRqM5nQ-3ivRh-133" value="" style="edgeStyle=orthogonalEdgeStyle;rounded=0;orthogonalLoop=1;jettySize=auto;html=1;" parent="1" source="T9Qwz79KRqM5nQ-3ivRh-131" target="T9Qwz79KRqM5nQ-3ivRh-132" edge="1">
                    <mxGeometry relative="1" as="geometry"/>
                </mxCell>
                <mxCell id="T9Qwz79KRqM5nQ-3ivRh-131" value="" style="ellipse;html=1;shape=startState;fillColor=#000000;strokeColor=#ff0000;" parent="1" vertex="1">
                    <mxGeometry x="2920" y="91" width="30" height="30" as="geometry"/>
                </mxCell>
                <mxCell id="T9Qwz79KRqM5nQ-3ivRh-135" value="" style="edgeStyle=orthogonalEdgeStyle;rounded=0;orthogonalLoop=1;jettySize=auto;html=1;" parent="1" source="T9Qwz79KRqM5nQ-3ivRh-132" target="T9Qwz79KRqM5nQ-3ivRh-134" edge="1">
                    <mxGeometry relative="1" as="geometry"/>
                </mxCell>
                <mxCell id="T9Qwz79KRqM5nQ-3ivRh-132" value="&lt;font style=&quot;font-size: 18px;&quot;&gt;点击我的行程&lt;/font&gt;" style="rounded=1;whiteSpace=wrap;html=1;" parent="1" vertex="1">
                    <mxGeometry x="2875" y="160" width="120" height="60" as="geometry"/>
                </mxCell>
                <mxCell id="T9Qwz79KRqM5nQ-3ivRh-137" value="" style="edgeStyle=orthogonalEdgeStyle;rounded=0;orthogonalLoop=1;jettySize=auto;html=1;" parent="1" source="T9Qwz79KRqM5nQ-3ivRh-134" target="T9Qwz79KRqM5nQ-3ivRh-136" edge="1">
                    <mxGeometry relative="1" as="geometry"/>
                </mxCell>
                <mxCell id="T9Qwz79KRqM5nQ-3ivRh-139" style="edgeStyle=orthogonalEdgeStyle;rounded=0;orthogonalLoop=1;jettySize=auto;html=1;entryX=0.5;entryY=0;entryDx=0;entryDy=0;" parent="1" source="T9Qwz79KRqM5nQ-3ivRh-134" target="T9Qwz79KRqM5nQ-3ivRh-138" edge="1">
                    <mxGeometry relative="1" as="geometry"/>
                </mxCell>
                <mxCell id="T9Qwz79KRqM5nQ-3ivRh-134" value="" style="rhombus;whiteSpace=wrap;html=1;" parent="1" vertex="1">
                    <mxGeometry x="2895" y="260" width="80" height="80" as="geometry"/>
                </mxCell>
                <mxCell id="T9Qwz79KRqM5nQ-3ivRh-142" value="" style="edgeStyle=orthogonalEdgeStyle;rounded=0;orthogonalLoop=1;jettySize=auto;html=1;" parent="1" source="T9Qwz79KRqM5nQ-3ivRh-136" target="T9Qwz79KRqM5nQ-3ivRh-140" edge="1">
                    <mxGeometry relative="1" as="geometry"/>
                </mxCell>
                <mxCell id="T9Qwz79KRqM5nQ-3ivRh-136" value="&lt;font style=&quot;font-size: 18px;&quot;&gt;修改行程&lt;/font&gt;" style="rounded=1;whiteSpace=wrap;html=1;" parent="1" vertex="1">
                    <mxGeometry x="2875" y="380" width="120" height="60" as="geometry"/>
                </mxCell>
                <mxCell id="T9Qwz79KRqM5nQ-3ivRh-147" value="" style="edgeStyle=orthogonalEdgeStyle;rounded=0;orthogonalLoop=1;jettySize=auto;html=1;" parent="1" source="T9Qwz79KRqM5nQ-3ivRh-138" target="T9Qwz79KRqM5nQ-3ivRh-146" edge="1">
                    <mxGeometry relative="1" as="geometry"/>
                </mxCell>
                <mxCell id="T9Qwz79KRqM5nQ-3ivRh-138" value="&lt;font style=&quot;font-size: 18px;&quot;&gt;查看行程详情&lt;/font&gt;" style="rounded=1;whiteSpace=wrap;html=1;" parent="1" vertex="1">
                    <mxGeometry x="3100" y="380" width="120" height="60" as="geometry"/>
                </mxCell>
                <mxCell id="T9Qwz79KRqM5nQ-3ivRh-143" value="" style="edgeStyle=orthogonalEdgeStyle;rounded=0;orthogonalLoop=1;jettySize=auto;html=1;" parent="1" source="T9Qwz79KRqM5nQ-3ivRh-140" target="T9Qwz79KRqM5nQ-3ivRh-141" edge="1">
                    <mxGeometry relative="1" as="geometry"/>
                </mxCell>
                <mxCell id="T9Qwz79KRqM5nQ-3ivRh-140" value="&lt;font style=&quot;font-size: 18px;&quot;&gt;自定义修改&lt;/font&gt;" style="rounded=1;whiteSpace=wrap;html=1;" parent="1" vertex="1">
                    <mxGeometry x="2875" y="480" width="120" height="60" as="geometry"/>
                </mxCell>
                <mxCell id="T9Qwz79KRqM5nQ-3ivRh-145" value="" style="edgeStyle=orthogonalEdgeStyle;rounded=0;orthogonalLoop=1;jettySize=auto;html=1;" parent="1" source="T9Qwz79KRqM5nQ-3ivRh-141" target="T9Qwz79KRqM5nQ-3ivRh-144" edge="1">
                    <mxGeometry relative="1" as="geometry"/>
                </mxCell>
                <mxCell id="T9Qwz79KRqM5nQ-3ivRh-141" value="&lt;font style=&quot;font-size: 18px;&quot;&gt;保存修改&lt;/font&gt;" style="rounded=1;whiteSpace=wrap;html=1;" parent="1" vertex="1">
                    <mxGeometry x="2875" y="575" width="120" height="60" as="geometry"/>
                </mxCell>
                <mxCell id="T9Qwz79KRqM5nQ-3ivRh-144" value="" style="ellipse;html=1;shape=endState;fillColor=#000000;strokeColor=#ff0000;" parent="1" vertex="1">
                    <mxGeometry x="2921" y="670" width="30" height="30" as="geometry"/>
                </mxCell>
                <mxCell id="T9Qwz79KRqM5nQ-3ivRh-146" value="" style="ellipse;html=1;shape=endState;fillColor=#000000;strokeColor=#ff0000;" parent="1" vertex="1">
                    <mxGeometry x="3145" y="480" width="30" height="30" as="geometry"/>
                </mxCell>
                <mxCell id="T9Qwz79KRqM5nQ-3ivRh-151" value="" style="edgeStyle=orthogonalEdgeStyle;rounded=0;orthogonalLoop=1;jettySize=auto;html=1;" parent="1" source="T9Qwz79KRqM5nQ-3ivRh-148" target="T9Qwz79KRqM5nQ-3ivRh-150" edge="1">
                    <mxGeometry relative="1" as="geometry"/>
                </mxCell>
                <mxCell id="T9Qwz79KRqM5nQ-3ivRh-148" value="" style="ellipse;html=1;shape=startState;fillColor=#000000;strokeColor=#ff0000;" parent="1" vertex="1">
                    <mxGeometry x="3740" y="90" width="30" height="30" as="geometry"/>
                </mxCell>
                <mxCell id="T9Qwz79KRqM5nQ-3ivRh-153" value="" style="edgeStyle=orthogonalEdgeStyle;rounded=0;orthogonalLoop=1;jettySize=auto;html=1;" parent="1" source="T9Qwz79KRqM5nQ-3ivRh-150" target="T9Qwz79KRqM5nQ-3ivRh-152" edge="1">
                    <mxGeometry relative="1" as="geometry"/>
                </mxCell>
                <mxCell id="T9Qwz79KRqM5nQ-3ivRh-150" value="&lt;font style=&quot;font-size: 18px;&quot;&gt;点击客服与反馈&lt;/font&gt;" style="rounded=1;whiteSpace=wrap;html=1;" parent="1" vertex="1">
                    <mxGeometry x="3695" y="159" width="120" height="60" as="geometry"/>
                </mxCell>
                <mxCell id="T9Qwz79KRqM5nQ-3ivRh-159" style="edgeStyle=orthogonalEdgeStyle;rounded=0;orthogonalLoop=1;jettySize=auto;html=1;entryX=0.5;entryY=0;entryDx=0;entryDy=0;" parent="1" source="T9Qwz79KRqM5nQ-3ivRh-152" target="T9Qwz79KRqM5nQ-3ivRh-154" edge="1">
                    <mxGeometry relative="1" as="geometry"/>
                </mxCell>
                <mxCell id="T9Qwz79KRqM5nQ-3ivRh-160" style="edgeStyle=orthogonalEdgeStyle;rounded=0;orthogonalLoop=1;jettySize=auto;html=1;entryX=0.5;entryY=0;entryDx=0;entryDy=0;" parent="1" source="T9Qwz79KRqM5nQ-3ivRh-152" target="T9Qwz79KRqM5nQ-3ivRh-156" edge="1">
                    <mxGeometry relative="1" as="geometry"/>
                </mxCell>
                <mxCell id="T9Qwz79KRqM5nQ-3ivRh-168" style="edgeStyle=orthogonalEdgeStyle;rounded=0;orthogonalLoop=1;jettySize=auto;html=1;exitX=1;exitY=1;exitDx=0;exitDy=0;entryX=0.5;entryY=0;entryDx=0;entryDy=0;" parent="1" source="T9Qwz79KRqM5nQ-3ivRh-152" target="T9Qwz79KRqM5nQ-3ivRh-166" edge="1">
                    <mxGeometry relative="1" as="geometry">
                        <Array as="points">
                            <mxPoint x="3775" y="340"/>
                            <mxPoint x="3855" y="340"/>
                        </Array>
                    </mxGeometry>
                </mxCell>
                <mxCell id="T9Qwz79KRqM5nQ-3ivRh-169" style="edgeStyle=orthogonalEdgeStyle;rounded=0;orthogonalLoop=1;jettySize=auto;html=1;exitX=0;exitY=1;exitDx=0;exitDy=0;entryX=0.5;entryY=0;entryDx=0;entryDy=0;" parent="1" source="T9Qwz79KRqM5nQ-3ivRh-152" target="T9Qwz79KRqM5nQ-3ivRh-165" edge="1">
                    <mxGeometry relative="1" as="geometry">
                        <Array as="points">
                            <mxPoint x="3735" y="340"/>
                            <mxPoint x="3662" y="340"/>
                        </Array>
                    </mxGeometry>
                </mxCell>
                <mxCell id="T9Qwz79KRqM5nQ-3ivRh-152" value="" style="rhombus;whiteSpace=wrap;html=1;" parent="1" vertex="1">
                    <mxGeometry x="3715" y="259" width="80" height="80" as="geometry"/>
                </mxCell>
                <mxCell id="T9Qwz79KRqM5nQ-3ivRh-162" value="" style="edgeStyle=orthogonalEdgeStyle;rounded=0;orthogonalLoop=1;jettySize=auto;html=1;" parent="1" source="T9Qwz79KRqM5nQ-3ivRh-154" target="T9Qwz79KRqM5nQ-3ivRh-161" edge="1">
                    <mxGeometry relative="1" as="geometry"/>
                </mxCell>
                <mxCell id="T9Qwz79KRqM5nQ-3ivRh-154" value="&lt;font style=&quot;font-size: 18px;&quot;&gt;选择服务&lt;/font&gt;" style="rounded=1;whiteSpace=wrap;html=1;" parent="1" vertex="1">
                    <mxGeometry x="3420" y="360" width="120" height="60" as="geometry"/>
                </mxCell>
                <mxCell id="T9Qwz79KRqM5nQ-3ivRh-185" value="" style="edgeStyle=orthogonalEdgeStyle;rounded=0;orthogonalLoop=1;jettySize=auto;html=1;" parent="1" source="T9Qwz79KRqM5nQ-3ivRh-156" target="T9Qwz79KRqM5nQ-3ivRh-178" edge="1">
                    <mxGeometry relative="1" as="geometry"/>
                </mxCell>
                <mxCell id="T9Qwz79KRqM5nQ-3ivRh-156" value="&lt;font style=&quot;font-size: 18px;&quot;&gt;查看资讯&lt;/font&gt;" style="rounded=1;whiteSpace=wrap;html=1;" parent="1" vertex="1">
                    <mxGeometry x="3980" y="360" width="120" height="60" as="geometry"/>
                </mxCell>
                <mxCell id="T9Qwz79KRqM5nQ-3ivRh-161" value="" style="ellipse;html=1;shape=endState;fillColor=#000000;strokeColor=#ff0000;" parent="1" vertex="1">
                    <mxGeometry x="3465" y="480" width="30" height="30" as="geometry"/>
                </mxCell>
                <mxCell id="T9Qwz79KRqM5nQ-3ivRh-180" value="" style="edgeStyle=orthogonalEdgeStyle;rounded=0;orthogonalLoop=1;jettySize=auto;html=1;" parent="1" source="T9Qwz79KRqM5nQ-3ivRh-165" target="T9Qwz79KRqM5nQ-3ivRh-176" edge="1">
                    <mxGeometry relative="1" as="geometry"/>
                </mxCell>
                <mxCell id="T9Qwz79KRqM5nQ-3ivRh-165" value="&lt;font style=&quot;font-size: 18px;&quot;&gt;电话咨询&lt;/font&gt;" style="rounded=1;whiteSpace=wrap;html=1;" parent="1" vertex="1">
                    <mxGeometry x="3602" y="360" width="120" height="60" as="geometry"/>
                </mxCell>
                <mxCell id="T9Qwz79KRqM5nQ-3ivRh-171" value="" style="edgeStyle=orthogonalEdgeStyle;rounded=0;orthogonalLoop=1;jettySize=auto;html=1;" parent="1" source="T9Qwz79KRqM5nQ-3ivRh-166" target="T9Qwz79KRqM5nQ-3ivRh-170" edge="1">
                    <mxGeometry relative="1" as="geometry"/>
                </mxCell>
                <mxCell id="T9Qwz79KRqM5nQ-3ivRh-166" value="&lt;font style=&quot;font-size: 18px;&quot;&gt;选择客服服务&lt;/font&gt;" style="rounded=1;whiteSpace=wrap;html=1;" parent="1" vertex="1">
                    <mxGeometry x="3795" y="360" width="120" height="60" as="geometry"/>
                </mxCell>
                <mxCell id="T9Qwz79KRqM5nQ-3ivRh-173" value="" style="edgeStyle=orthogonalEdgeStyle;rounded=0;orthogonalLoop=1;jettySize=auto;html=1;" parent="1" source="T9Qwz79KRqM5nQ-3ivRh-170" target="T9Qwz79KRqM5nQ-3ivRh-172" edge="1">
                    <mxGeometry relative="1" as="geometry"/>
                </mxCell>
                <mxCell id="T9Qwz79KRqM5nQ-3ivRh-170" value="&lt;font style=&quot;font-size: 18px;&quot;&gt;与客服对话&lt;/font&gt;" style="rounded=1;whiteSpace=wrap;html=1;" parent="1" vertex="1">
                    <mxGeometry x="3795" y="460" width="120" height="60" as="geometry"/>
                </mxCell>
                <mxCell id="T9Qwz79KRqM5nQ-3ivRh-175" value="" style="edgeStyle=orthogonalEdgeStyle;rounded=0;orthogonalLoop=1;jettySize=auto;html=1;" parent="1" source="T9Qwz79KRqM5nQ-3ivRh-172" target="T9Qwz79KRqM5nQ-3ivRh-174" edge="1">
                    <mxGeometry relative="1" as="geometry"/>
                </mxCell>
                <mxCell id="T9Qwz79KRqM5nQ-3ivRh-183" style="edgeStyle=orthogonalEdgeStyle;rounded=0;orthogonalLoop=1;jettySize=auto;html=1;entryX=1;entryY=0.5;entryDx=0;entryDy=0;" parent="1" source="T9Qwz79KRqM5nQ-3ivRh-172" target="T9Qwz79KRqM5nQ-3ivRh-177" edge="1">
                    <mxGeometry relative="1" as="geometry">
                        <mxPoint x="3980" y="810" as="targetPoint"/>
                        <Array as="points">
                            <mxPoint x="3970" y="600"/>
                            <mxPoint x="3970" y="795"/>
                        </Array>
                    </mxGeometry>
                </mxCell>
                <mxCell id="T9Qwz79KRqM5nQ-3ivRh-172" value="" style="rhombus;whiteSpace=wrap;html=1;" parent="1" vertex="1">
                    <mxGeometry x="3815" y="560" width="80" height="80" as="geometry"/>
                </mxCell>
                <mxCell id="T9Qwz79KRqM5nQ-3ivRh-182" value="" style="edgeStyle=orthogonalEdgeStyle;rounded=0;orthogonalLoop=1;jettySize=auto;html=1;" parent="1" source="T9Qwz79KRqM5nQ-3ivRh-174" target="T9Qwz79KRqM5nQ-3ivRh-177" edge="1">
                    <mxGeometry relative="1" as="geometry"/>
                </mxCell>
                <mxCell id="T9Qwz79KRqM5nQ-3ivRh-174" value="&lt;font style=&quot;font-size: 18px;&quot;&gt;评价客服&lt;/font&gt;" style="rounded=1;whiteSpace=wrap;html=1;" parent="1" vertex="1">
                    <mxGeometry x="3795" y="680" width="120" height="60" as="geometry"/>
                </mxCell>
                <mxCell id="T9Qwz79KRqM5nQ-3ivRh-176" value="" style="ellipse;html=1;shape=endState;fillColor=#000000;strokeColor=#ff0000;" parent="1" vertex="1">
                    <mxGeometry x="3647" y="480" width="30" height="30" as="geometry"/>
                </mxCell>
                <mxCell id="T9Qwz79KRqM5nQ-3ivRh-177" value="" style="ellipse;html=1;shape=endState;fillColor=#000000;strokeColor=#ff0000;" parent="1" vertex="1">
                    <mxGeometry x="3840" y="780" width="30" height="30" as="geometry"/>
                </mxCell>
                <mxCell id="T9Qwz79KRqM5nQ-3ivRh-178" value="" style="ellipse;html=1;shape=endState;fillColor=#000000;strokeColor=#ff0000;" parent="1" vertex="1">
                    <mxGeometry x="4025" y="480" width="30" height="30" as="geometry"/>
                </mxCell>
                <mxCell id="T9Qwz79KRqM5nQ-3ivRh-188" value="&lt;font style=&quot;font-size: 24px;&quot;&gt;登入&lt;/font&gt;" style="rounded=1;whiteSpace=wrap;html=1;fillColor=#000000;strokeColor=#001DBC;fontColor=#ffffff;" parent="1" vertex="1">
                    <mxGeometry x="515" width="180" height="60" as="geometry"/>
                </mxCell>
                <mxCell id="T9Qwz79KRqM5nQ-3ivRh-189" style="edgeStyle=orthogonalEdgeStyle;rounded=0;orthogonalLoop=1;jettySize=auto;html=1;exitX=0.25;exitY=1;exitDx=0;exitDy=0;entryX=0.383;entryY=1.049;entryDx=0;entryDy=0;entryPerimeter=0;" parent="1" source="T9Qwz79KRqM5nQ-3ivRh-188" target="T9Qwz79KRqM5nQ-3ivRh-188" edge="1">
                    <mxGeometry relative="1" as="geometry"/>
                </mxCell>
                <mxCell id="T9Qwz79KRqM5nQ-3ivRh-190" value="&lt;font style=&quot;font-size: 24px;&quot;&gt;我的行程&lt;/font&gt;" style="rounded=1;whiteSpace=wrap;html=1;fillColor=#000000;strokeColor=#001DBC;fontColor=#ffffff;" parent="1" vertex="1">
                    <mxGeometry x="2846" width="180" height="60" as="geometry"/>
                </mxCell>
                <mxCell id="T9Qwz79KRqM5nQ-3ivRh-191" value="&lt;span style=&quot;font-size: 24px;&quot;&gt;紧急事件处理&lt;/span&gt;" style="rounded=1;whiteSpace=wrap;html=1;fillColor=#000000;strokeColor=#001DBC;fontColor=#ffffff;" parent="1" vertex="1">
                    <mxGeometry x="2291" width="180" height="60" as="geometry"/>
                </mxCell>
                <mxCell id="T9Qwz79KRqM5nQ-3ivRh-192" value="&lt;font style=&quot;font-size: 24px;&quot;&gt;天气预报&lt;/font&gt;" style="rounded=1;whiteSpace=wrap;html=1;fillColor=#000000;strokeColor=#001DBC;fontColor=#ffffff;" parent="1" vertex="1">
                    <mxGeometry x="1595" width="180" height="60" as="geometry"/>
                </mxCell>
                <mxCell id="T9Qwz79KRqM5nQ-3ivRh-193" value="&lt;font style=&quot;font-size: 24px;&quot;&gt;定制路线&lt;/font&gt;" style="rounded=1;whiteSpace=wrap;html=1;fillColor=#000000;strokeColor=#001DBC;fontColor=#ffffff;" parent="1" vertex="1">
                    <mxGeometry x="1035" width="180" height="60" as="geometry"/>
                </mxCell>
                <mxCell id="T9Qwz79KRqM5nQ-3ivRh-194" value="&lt;font style=&quot;font-size: 24px;&quot;&gt;客服与反馈&lt;/font&gt;" style="rounded=1;whiteSpace=wrap;html=1;fillColor=#000000;strokeColor=#001DBC;fontColor=#ffffff;" parent="1" vertex="1">
                    <mxGeometry x="3660" width="180" height="60" as="geometry"/>
                </mxCell>
                <mxCell id="T9Qwz79KRqM5nQ-3ivRh-205" value="Pool" style="swimlane;childLayout=stackLayout;resizeParent=1;resizeParentMax=0;startSize=20;html=1;" parent="1" vertex="1">
                    <mxGeometry x="330" y="1169" width="1050" height="890" as="geometry"/>
                </mxCell>
                <mxCell id="T9Qwz79KRqM5nQ-3ivRh-206" value="用户" style="swimlane;startSize=20;html=1;" parent="T9Qwz79KRqM5nQ-3ivRh-205" vertex="1">
                    <mxGeometry y="20" width="230" height="870" as="geometry"/>
                </mxCell>
                <mxCell id="T9Qwz79KRqM5nQ-3ivRh-214" style="edgeStyle=orthogonalEdgeStyle;rounded=0;orthogonalLoop=1;jettySize=auto;html=1;entryX=0.5;entryY=0;entryDx=0;entryDy=0;" parent="T9Qwz79KRqM5nQ-3ivRh-206" source="T9Qwz79KRqM5nQ-3ivRh-215" target="T9Qwz79KRqM5nQ-3ivRh-217" edge="1">
                    <mxGeometry relative="1" as="geometry"/>
                </mxCell>
                <mxCell id="T9Qwz79KRqM5nQ-3ivRh-215" value="" style="ellipse;html=1;shape=startState;fillColor=#000000;strokeColor=#ff0000;" parent="T9Qwz79KRqM5nQ-3ivRh-206" vertex="1">
                    <mxGeometry x="85" y="30" width="30" height="30" as="geometry"/>
                </mxCell>
                <mxCell id="T9Qwz79KRqM5nQ-3ivRh-217" value="&lt;font style=&quot;font-size: 18px;&quot;&gt;输入账号密码&lt;/font&gt;" style="rounded=1;whiteSpace=wrap;html=1;" parent="T9Qwz79KRqM5nQ-3ivRh-206" vertex="1">
                    <mxGeometry x="40" y="100" width="120" height="60" as="geometry"/>
                </mxCell>
                <mxCell id="T9Qwz79KRqM5nQ-3ivRh-219" value="&lt;font style=&quot;font-size: 18px;&quot;&gt;人机验证&lt;/font&gt;" style="rounded=1;whiteSpace=wrap;html=1;" parent="T9Qwz79KRqM5nQ-3ivRh-206" vertex="1">
                    <mxGeometry x="40" y="190" width="120" height="60" as="geometry"/>
                </mxCell>
                <mxCell id="T9Qwz79KRqM5nQ-3ivRh-207" value="系统" style="swimlane;startSize=20;html=1;" parent="T9Qwz79KRqM5nQ-3ivRh-205" vertex="1">
                    <mxGeometry x="230" y="20" width="365" height="870" as="geometry"/>
                </mxCell>
                <mxCell id="T9Qwz79KRqM5nQ-3ivRh-229" value="&lt;span style=&quot;font-size: 18px;&quot;&gt;展示人机验证页面&lt;/span&gt;" style="rounded=1;whiteSpace=wrap;html=1;" parent="T9Qwz79KRqM5nQ-3ivRh-207" vertex="1">
                    <mxGeometry x="65" y="100" width="120" height="60" as="geometry"/>
                </mxCell>
                <mxCell id="T9Qwz79KRqM5nQ-3ivRh-238" value="" style="edgeStyle=orthogonalEdgeStyle;rounded=0;orthogonalLoop=1;jettySize=auto;html=1;" parent="T9Qwz79KRqM5nQ-3ivRh-207" source="T9Qwz79KRqM5nQ-3ivRh-233" target="T9Qwz79KRqM5nQ-3ivRh-235" edge="1">
                    <mxGeometry relative="1" as="geometry"/>
                </mxCell>
                <mxCell id="T9Qwz79KRqM5nQ-3ivRh-233" value="&lt;span style=&quot;font-size: 18px;&quot;&gt;人机检验&lt;/span&gt;" style="rounded=1;whiteSpace=wrap;html=1;" parent="T9Qwz79KRqM5nQ-3ivRh-207" vertex="1">
                    <mxGeometry x="65" y="261" width="120" height="60" as="geometry"/>
                </mxCell>
                <mxCell id="T9Qwz79KRqM5nQ-3ivRh-240" value="" style="edgeStyle=orthogonalEdgeStyle;rounded=0;orthogonalLoop=1;jettySize=auto;html=1;" parent="T9Qwz79KRqM5nQ-3ivRh-207" source="T9Qwz79KRqM5nQ-3ivRh-235" target="T9Qwz79KRqM5nQ-3ivRh-239" edge="1">
                    <mxGeometry relative="1" as="geometry"/>
                </mxCell>
                <mxCell id="T9Qwz79KRqM5nQ-3ivRh-235" value="&lt;font style=&quot;font-size: 18px;&quot;&gt;验证账号信息&lt;/font&gt;" style="rounded=1;whiteSpace=wrap;html=1;" parent="T9Qwz79KRqM5nQ-3ivRh-207" vertex="1">
                    <mxGeometry x="65" y="371" width="120" height="60" as="geometry"/>
                </mxCell>
                <mxCell id="T9Qwz79KRqM5nQ-3ivRh-242" style="edgeStyle=orthogonalEdgeStyle;rounded=0;orthogonalLoop=1;jettySize=auto;html=1;" parent="T9Qwz79KRqM5nQ-3ivRh-207" source="T9Qwz79KRqM5nQ-3ivRh-239" target="T9Qwz79KRqM5nQ-3ivRh-226" edge="1">
                    <mxGeometry relative="1" as="geometry"/>
                </mxCell>
                <mxCell id="T9Qwz79KRqM5nQ-3ivRh-245" style="edgeStyle=orthogonalEdgeStyle;rounded=0;orthogonalLoop=1;jettySize=auto;html=1;exitX=1;exitY=0.5;exitDx=0;exitDy=0;entryX=1;entryY=0.5;entryDx=0;entryDy=0;" parent="T9Qwz79KRqM5nQ-3ivRh-207" source="T9Qwz79KRqM5nQ-3ivRh-239" target="T9Qwz79KRqM5nQ-3ivRh-243" edge="1">
                    <mxGeometry relative="1" as="geometry"/>
                </mxCell>
                <mxCell id="T9Qwz79KRqM5nQ-3ivRh-239" value="&lt;font style=&quot;font-size: 18px;&quot;&gt;验证结果&lt;/font&gt;" style="rhombus;whiteSpace=wrap;html=1;" parent="T9Qwz79KRqM5nQ-3ivRh-207" vertex="1">
                    <mxGeometry x="85" y="471" width="80" height="79" as="geometry"/>
                </mxCell>
                <mxCell id="T9Qwz79KRqM5nQ-3ivRh-247" value="" style="edgeStyle=orthogonalEdgeStyle;rounded=0;orthogonalLoop=1;jettySize=auto;html=1;" parent="T9Qwz79KRqM5nQ-3ivRh-207" source="T9Qwz79KRqM5nQ-3ivRh-226" target="T9Qwz79KRqM5nQ-3ivRh-246" edge="1">
                    <mxGeometry relative="1" as="geometry"/>
                </mxCell>
                <mxCell id="T9Qwz79KRqM5nQ-3ivRh-226" value="&lt;span style=&quot;font-size: 18px;&quot;&gt;展示首页&lt;/span&gt;" style="rounded=1;whiteSpace=wrap;html=1;" parent="T9Qwz79KRqM5nQ-3ivRh-207" vertex="1">
                    <mxGeometry x="65" y="581" width="120" height="60" as="geometry"/>
                </mxCell>
                <mxCell id="T9Qwz79KRqM5nQ-3ivRh-249" value="" style="edgeStyle=orthogonalEdgeStyle;rounded=0;orthogonalLoop=1;jettySize=auto;html=1;" parent="T9Qwz79KRqM5nQ-3ivRh-207" source="T9Qwz79KRqM5nQ-3ivRh-243" target="T9Qwz79KRqM5nQ-3ivRh-248" edge="1">
                    <mxGeometry relative="1" as="geometry"/>
                </mxCell>
                <mxCell id="T9Qwz79KRqM5nQ-3ivRh-243" value="&lt;span style=&quot;font-size: 18px;&quot;&gt;提示错误&lt;/span&gt;" style="rounded=1;whiteSpace=wrap;html=1;" parent="T9Qwz79KRqM5nQ-3ivRh-207" vertex="1">
                    <mxGeometry x="212" y="651" width="120" height="60" as="geometry"/>
                </mxCell>
                <mxCell id="T9Qwz79KRqM5nQ-3ivRh-246" value="" style="ellipse;html=1;shape=endState;fillColor=#000000;strokeColor=#ff0000;" parent="T9Qwz79KRqM5nQ-3ivRh-207" vertex="1">
                    <mxGeometry x="110" y="701" width="30" height="30" as="geometry"/>
                </mxCell>
                <mxCell id="T9Qwz79KRqM5nQ-3ivRh-248" value="" style="ellipse;html=1;shape=endState;fillColor=#000000;strokeColor=#ff0000;" parent="T9Qwz79KRqM5nQ-3ivRh-207" vertex="1">
                    <mxGeometry x="257" y="751" width="30" height="30" as="geometry"/>
                </mxCell>
                <mxCell id="T9Qwz79KRqM5nQ-3ivRh-208" value="百度地图" style="swimlane;startSize=20;html=1;" parent="T9Qwz79KRqM5nQ-3ivRh-205" vertex="1">
                    <mxGeometry x="595" y="20" width="235" height="870" as="geometry"/>
                </mxCell>
                <mxCell id="T9Qwz79KRqM5nQ-3ivRh-213" value="文心一言" style="swimlane;startSize=20;html=1;" parent="T9Qwz79KRqM5nQ-3ivRh-205" vertex="1">
                    <mxGeometry x="830" y="20" width="220" height="870" as="geometry"/>
                </mxCell>
                <mxCell id="T9Qwz79KRqM5nQ-3ivRh-231" style="edgeStyle=orthogonalEdgeStyle;rounded=0;orthogonalLoop=1;jettySize=auto;html=1;entryX=0;entryY=0.5;entryDx=0;entryDy=0;" parent="T9Qwz79KRqM5nQ-3ivRh-205" source="T9Qwz79KRqM5nQ-3ivRh-217" target="T9Qwz79KRqM5nQ-3ivRh-229" edge="1">
                    <mxGeometry relative="1" as="geometry"/>
                </mxCell>
                <mxCell id="T9Qwz79KRqM5nQ-3ivRh-237" style="edgeStyle=orthogonalEdgeStyle;rounded=0;orthogonalLoop=1;jettySize=auto;html=1;exitX=0.5;exitY=1;exitDx=0;exitDy=0;entryX=0;entryY=0.5;entryDx=0;entryDy=0;" parent="T9Qwz79KRqM5nQ-3ivRh-205" source="T9Qwz79KRqM5nQ-3ivRh-219" target="T9Qwz79KRqM5nQ-3ivRh-233" edge="1">
                    <mxGeometry relative="1" as="geometry"/>
                </mxCell>
                <mxCell id="T9Qwz79KRqM5nQ-3ivRh-251" style="edgeStyle=orthogonalEdgeStyle;rounded=0;orthogonalLoop=1;jettySize=auto;html=1;exitX=0.5;exitY=1;exitDx=0;exitDy=0;entryX=1;entryY=0.5;entryDx=0;entryDy=0;" parent="T9Qwz79KRqM5nQ-3ivRh-205" source="T9Qwz79KRqM5nQ-3ivRh-229" target="T9Qwz79KRqM5nQ-3ivRh-219" edge="1">
                    <mxGeometry relative="1" as="geometry"/>
                </mxCell>
                <mxCell id="T9Qwz79KRqM5nQ-3ivRh-288" value="Pool" style="swimlane;childLayout=stackLayout;resizeParent=1;resizeParentMax=0;startSize=20;html=1;" parent="1" vertex="1">
                    <mxGeometry x="2471" y="1180" width="800" height="2940" as="geometry"/>
                </mxCell>
                <mxCell id="T9Qwz79KRqM5nQ-3ivRh-289" value="用户" style="swimlane;startSize=20;html=1;" parent="T9Qwz79KRqM5nQ-3ivRh-288" vertex="1">
                    <mxGeometry y="20" width="200" height="2920" as="geometry"/>
                </mxCell>
                <mxCell id="T9Qwz79KRqM5nQ-3ivRh-270" style="edgeStyle=orthogonalEdgeStyle;rounded=0;orthogonalLoop=1;jettySize=auto;html=1;entryX=0.5;entryY=0;entryDx=0;entryDy=0;" parent="T9Qwz79KRqM5nQ-3ivRh-289" source="T9Qwz79KRqM5nQ-3ivRh-271" target="T9Qwz79KRqM5nQ-3ivRh-273" edge="1">
                    <mxGeometry relative="1" as="geometry"/>
                </mxCell>
                <mxCell id="T9Qwz79KRqM5nQ-3ivRh-271" value="" style="ellipse;html=1;shape=startState;fillColor=#000000;strokeColor=#ff0000;" parent="T9Qwz79KRqM5nQ-3ivRh-289" vertex="1">
                    <mxGeometry x="89.9" y="60" width="30" height="30" as="geometry"/>
                </mxCell>
                <mxCell id="T9Qwz79KRqM5nQ-3ivRh-273" value="&lt;font style=&quot;font-size: 18px;&quot;&gt;点击定制路线&lt;/font&gt;" style="rounded=1;whiteSpace=wrap;html=1;" parent="T9Qwz79KRqM5nQ-3ivRh-289" vertex="1">
                    <mxGeometry x="44.9" y="130" width="120" height="60" as="geometry"/>
                </mxCell>
                <mxCell id="T9Qwz79KRqM5nQ-3ivRh-275" value="&lt;font style=&quot;font-size: 18px;&quot;&gt;根据提示输入需求并提交&lt;/font&gt;" style="rounded=1;whiteSpace=wrap;html=1;" parent="T9Qwz79KRqM5nQ-3ivRh-289" vertex="1">
                    <mxGeometry x="44.9" y="220" width="120" height="60" as="geometry"/>
                </mxCell>
                <mxCell id="T9Qwz79KRqM5nQ-3ivRh-277" value="&lt;font style=&quot;font-size: 18px;&quot;&gt;查看计划详情&lt;/font&gt;" style="rounded=1;whiteSpace=wrap;html=1;" parent="T9Qwz79KRqM5nQ-3ivRh-289" vertex="1">
                    <mxGeometry x="44.9" y="490" width="120" height="60" as="geometry"/>
                </mxCell>
                <mxCell id="T9Qwz79KRqM5nQ-3ivRh-278" value="" style="edgeStyle=orthogonalEdgeStyle;rounded=0;orthogonalLoop=1;jettySize=auto;html=1;" parent="T9Qwz79KRqM5nQ-3ivRh-289" target="T9Qwz79KRqM5nQ-3ivRh-282" edge="1">
                    <mxGeometry relative="1" as="geometry">
                        <mxPoint x="119.00000000000045" y="839.9999999999991" as="sourcePoint"/>
                    </mxGeometry>
                </mxCell>
                <mxCell id="T9Qwz79KRqM5nQ-3ivRh-282" value="&lt;font style=&quot;font-size: 18px;&quot;&gt;查看景点详情&lt;/font&gt;" style="rounded=1;whiteSpace=wrap;html=1;" parent="T9Qwz79KRqM5nQ-3ivRh-289" vertex="1">
                    <mxGeometry x="45" y="790" width="120" height="60" as="geometry"/>
                </mxCell>
                <mxCell id="T9Qwz79KRqM5nQ-3ivRh-327" style="edgeStyle=orthogonalEdgeStyle;rounded=0;orthogonalLoop=1;jettySize=auto;html=1;exitX=0.5;exitY=1;exitDx=0;exitDy=0;entryX=0.5;entryY=0;entryDx=0;entryDy=0;" parent="T9Qwz79KRqM5nQ-3ivRh-289" source="T9Qwz79KRqM5nQ-3ivRh-284" target="T9Qwz79KRqM5nQ-3ivRh-286" edge="1">
                    <mxGeometry relative="1" as="geometry"/>
                </mxCell>
                <mxCell id="T9Qwz79KRqM5nQ-3ivRh-284" value="" style="rhombus;whiteSpace=wrap;html=1;" parent="T9Qwz79KRqM5nQ-3ivRh-289" vertex="1">
                    <mxGeometry x="64.9" y="900" width="80" height="80" as="geometry"/>
                </mxCell>
                <mxCell id="T9Qwz79KRqM5nQ-3ivRh-410" style="edgeStyle=orthogonalEdgeStyle;rounded=0;orthogonalLoop=1;jettySize=auto;html=1;exitX=0.5;exitY=1;exitDx=0;exitDy=0;entryX=0.5;entryY=0;entryDx=0;entryDy=0;" parent="T9Qwz79KRqM5nQ-3ivRh-289" source="T9Qwz79KRqM5nQ-3ivRh-286" target="T9Qwz79KRqM5nQ-3ivRh-409" edge="1">
                    <mxGeometry relative="1" as="geometry"/>
                </mxCell>
                <mxCell id="T9Qwz79KRqM5nQ-3ivRh-286" value="&lt;font style=&quot;font-size: 18px;&quot;&gt;加入计划&lt;/font&gt;" style="rounded=1;whiteSpace=wrap;html=1;" parent="T9Qwz79KRqM5nQ-3ivRh-289" vertex="1">
                    <mxGeometry x="45" y="1020" width="120" height="60" as="geometry"/>
                </mxCell>
                <mxCell id="T9Qwz79KRqM5nQ-3ivRh-322" value="" style="edgeStyle=orthogonalEdgeStyle;rounded=0;orthogonalLoop=1;jettySize=auto;html=1;" parent="T9Qwz79KRqM5nQ-3ivRh-289" source="T9Qwz79KRqM5nQ-3ivRh-320" target="T9Qwz79KRqM5nQ-3ivRh-282" edge="1">
                    <mxGeometry relative="1" as="geometry"/>
                </mxCell>
                <mxCell id="T9Qwz79KRqM5nQ-3ivRh-326" style="edgeStyle=orthogonalEdgeStyle;rounded=0;orthogonalLoop=1;jettySize=auto;html=1;exitX=0;exitY=0.5;exitDx=0;exitDy=0;entryX=0;entryY=0.5;entryDx=0;entryDy=0;" parent="T9Qwz79KRqM5nQ-3ivRh-289" source="T9Qwz79KRqM5nQ-3ivRh-320" target="T9Qwz79KRqM5nQ-3ivRh-284" edge="1">
                    <mxGeometry relative="1" as="geometry">
                        <Array as="points">
                            <mxPoint x="29" y="720"/>
                            <mxPoint x="29" y="940"/>
                        </Array>
                    </mxGeometry>
                </mxCell>
                <mxCell id="T9Qwz79KRqM5nQ-3ivRh-320" value="" style="rhombus;whiteSpace=wrap;html=1;" parent="T9Qwz79KRqM5nQ-3ivRh-289" vertex="1">
                    <mxGeometry x="65" y="680" width="80" height="80" as="geometry"/>
                </mxCell>
                <mxCell id="T9Qwz79KRqM5nQ-3ivRh-408" style="edgeStyle=orthogonalEdgeStyle;rounded=0;orthogonalLoop=1;jettySize=auto;html=1;exitX=0.5;exitY=1;exitDx=0;exitDy=0;entryX=0.5;entryY=0;entryDx=0;entryDy=0;" parent="T9Qwz79KRqM5nQ-3ivRh-289" source="T9Qwz79KRqM5nQ-3ivRh-405" target="T9Qwz79KRqM5nQ-3ivRh-407" edge="1">
                    <mxGeometry relative="1" as="geometry"/>
                </mxCell>
                <mxCell id="T9Qwz79KRqM5nQ-3ivRh-405" value="&lt;font style=&quot;font-size: 18px;&quot;&gt;点击天气预报&lt;/font&gt;" style="rounded=1;whiteSpace=wrap;html=1;" parent="T9Qwz79KRqM5nQ-3ivRh-289" vertex="1">
                    <mxGeometry x="49" y="1240" width="120" height="60" as="geometry"/>
                </mxCell>
                <mxCell id="T9Qwz79KRqM5nQ-3ivRh-418" value="" style="edgeStyle=orthogonalEdgeStyle;rounded=0;orthogonalLoop=1;jettySize=auto;html=1;" parent="T9Qwz79KRqM5nQ-3ivRh-289" source="T9Qwz79KRqM5nQ-3ivRh-407" target="T9Qwz79KRqM5nQ-3ivRh-417" edge="1">
                    <mxGeometry relative="1" as="geometry"/>
                </mxCell>
                <mxCell id="T9Qwz79KRqM5nQ-3ivRh-407" value="" style="rhombus;whiteSpace=wrap;html=1;" parent="T9Qwz79KRqM5nQ-3ivRh-289" vertex="1">
                    <mxGeometry x="69" y="1350" width="80" height="80" as="geometry"/>
                </mxCell>
                <mxCell id="T9Qwz79KRqM5nQ-3ivRh-411" style="edgeStyle=orthogonalEdgeStyle;rounded=0;orthogonalLoop=1;jettySize=auto;html=1;exitX=0.5;exitY=1;exitDx=0;exitDy=0;entryX=0.5;entryY=0;entryDx=0;entryDy=0;" parent="T9Qwz79KRqM5nQ-3ivRh-289" source="T9Qwz79KRqM5nQ-3ivRh-409" target="T9Qwz79KRqM5nQ-3ivRh-405" edge="1">
                    <mxGeometry relative="1" as="geometry"/>
                </mxCell>
                <mxCell id="T9Qwz79KRqM5nQ-3ivRh-416" style="edgeStyle=orthogonalEdgeStyle;rounded=0;orthogonalLoop=1;jettySize=auto;html=1;exitX=0;exitY=0.5;exitDx=0;exitDy=0;entryX=0.5;entryY=0;entryDx=0;entryDy=0;" parent="T9Qwz79KRqM5nQ-3ivRh-289" source="T9Qwz79KRqM5nQ-3ivRh-409" target="T9Qwz79KRqM5nQ-3ivRh-412" edge="1">
                    <mxGeometry relative="1" as="geometry"/>
                </mxCell>
                <mxCell id="T9Qwz79KRqM5nQ-3ivRh-409" value="" style="rhombus;whiteSpace=wrap;html=1;" parent="T9Qwz79KRqM5nQ-3ivRh-289" vertex="1">
                    <mxGeometry x="69" y="1110" width="80" height="80" as="geometry"/>
                </mxCell>
                <mxCell id="T9Qwz79KRqM5nQ-3ivRh-412" value="" style="ellipse;html=1;shape=endState;fillColor=#000000;strokeColor=#ff0000;" parent="T9Qwz79KRqM5nQ-3ivRh-289" vertex="1">
                    <mxGeometry x="19" y="1190" width="30" height="30" as="geometry"/>
                </mxCell>
                <mxCell id="T9Qwz79KRqM5nQ-3ivRh-415" style="edgeStyle=orthogonalEdgeStyle;rounded=0;orthogonalLoop=1;jettySize=auto;html=1;exitX=0.5;exitY=1;exitDx=0;exitDy=0;" parent="T9Qwz79KRqM5nQ-3ivRh-289" source="T9Qwz79KRqM5nQ-3ivRh-405" target="T9Qwz79KRqM5nQ-3ivRh-405" edge="1">
                    <mxGeometry relative="1" as="geometry"/>
                </mxCell>
                <mxCell id="T9Qwz79KRqM5nQ-3ivRh-417" value="&lt;font style=&quot;font-size: 18px;&quot;&gt;点击实时调整&lt;/font&gt;" style="rounded=1;whiteSpace=wrap;html=1;" parent="T9Qwz79KRqM5nQ-3ivRh-289" vertex="1">
                    <mxGeometry x="49" y="1482.5" width="120" height="60" as="geometry"/>
                </mxCell>
                <mxCell id="T9Qwz79KRqM5nQ-3ivRh-433" value="" style="edgeStyle=orthogonalEdgeStyle;rounded=0;orthogonalLoop=1;jettySize=auto;html=1;" parent="T9Qwz79KRqM5nQ-3ivRh-289" source="T9Qwz79KRqM5nQ-3ivRh-430" target="T9Qwz79KRqM5nQ-3ivRh-432" edge="1">
                    <mxGeometry relative="1" as="geometry"/>
                </mxCell>
                <mxCell id="T9Qwz79KRqM5nQ-3ivRh-430" value="&lt;font style=&quot;font-size: 18px;&quot;&gt;浏览调整情况&lt;/font&gt;" style="rounded=1;whiteSpace=wrap;html=1;" parent="T9Qwz79KRqM5nQ-3ivRh-289" vertex="1">
                    <mxGeometry x="49" y="1590" width="120" height="60" as="geometry"/>
                </mxCell>
                <mxCell id="T9Qwz79KRqM5nQ-3ivRh-436" style="edgeStyle=orthogonalEdgeStyle;rounded=0;orthogonalLoop=1;jettySize=auto;html=1;exitX=0;exitY=0.5;exitDx=0;exitDy=0;entryX=0.5;entryY=0;entryDx=0;entryDy=0;" parent="T9Qwz79KRqM5nQ-3ivRh-289" source="T9Qwz79KRqM5nQ-3ivRh-432" target="T9Qwz79KRqM5nQ-3ivRh-435" edge="1">
                    <mxGeometry relative="1" as="geometry"/>
                </mxCell>
                <mxCell id="T9Qwz79KRqM5nQ-3ivRh-437" style="edgeStyle=orthogonalEdgeStyle;rounded=0;orthogonalLoop=1;jettySize=auto;html=1;exitX=0.5;exitY=1;exitDx=0;exitDy=0;entryX=0.5;entryY=0;entryDx=0;entryDy=0;" parent="T9Qwz79KRqM5nQ-3ivRh-289" source="T9Qwz79KRqM5nQ-3ivRh-432" target="T9Qwz79KRqM5nQ-3ivRh-434" edge="1">
                    <mxGeometry relative="1" as="geometry"/>
                </mxCell>
                <mxCell id="T9Qwz79KRqM5nQ-3ivRh-432" value="" style="rhombus;whiteSpace=wrap;html=1;" parent="T9Qwz79KRqM5nQ-3ivRh-289" vertex="1">
                    <mxGeometry x="69" y="1700" width="80" height="80" as="geometry"/>
                </mxCell>
                <mxCell id="T9Qwz79KRqM5nQ-3ivRh-442" value="" style="edgeStyle=orthogonalEdgeStyle;rounded=0;orthogonalLoop=1;jettySize=auto;html=1;" parent="T9Qwz79KRqM5nQ-3ivRh-289" source="T9Qwz79KRqM5nQ-3ivRh-434" target="T9Qwz79KRqM5nQ-3ivRh-441" edge="1">
                    <mxGeometry relative="1" as="geometry"/>
                </mxCell>
                <mxCell id="T9Qwz79KRqM5nQ-3ivRh-434" value="&lt;font style=&quot;font-size: 18px;&quot;&gt;点击未雨绸缪&lt;/font&gt;" style="rounded=1;whiteSpace=wrap;html=1;" parent="T9Qwz79KRqM5nQ-3ivRh-289" vertex="1">
                    <mxGeometry x="49" y="1830" width="120" height="60" as="geometry"/>
                </mxCell>
                <mxCell id="T9Qwz79KRqM5nQ-3ivRh-435" value="" style="ellipse;html=1;shape=endState;fillColor=#000000;strokeColor=#ff0000;" parent="T9Qwz79KRqM5nQ-3ivRh-289" vertex="1">
                    <mxGeometry x="19" y="1780" width="30" height="30" as="geometry"/>
                </mxCell>
                <mxCell id="T9Qwz79KRqM5nQ-3ivRh-450" value="" style="edgeStyle=orthogonalEdgeStyle;rounded=0;orthogonalLoop=1;jettySize=auto;html=1;" parent="T9Qwz79KRqM5nQ-3ivRh-289" source="T9Qwz79KRqM5nQ-3ivRh-440" target="T9Qwz79KRqM5nQ-3ivRh-445" edge="1">
                    <mxGeometry relative="1" as="geometry"/>
                </mxCell>
                <mxCell id="T9Qwz79KRqM5nQ-3ivRh-440" value="&lt;span style=&quot;font-size: 18px;&quot;&gt;选择不调整&lt;/span&gt;" style="rounded=1;whiteSpace=wrap;html=1;" parent="T9Qwz79KRqM5nQ-3ivRh-289" vertex="1">
                    <mxGeometry x="49" y="2080" width="120" height="60" as="geometry"/>
                </mxCell>
                <mxCell id="T9Qwz79KRqM5nQ-3ivRh-444" value="" style="edgeStyle=orthogonalEdgeStyle;rounded=0;orthogonalLoop=1;jettySize=auto;html=1;" parent="T9Qwz79KRqM5nQ-3ivRh-289" source="T9Qwz79KRqM5nQ-3ivRh-441" target="T9Qwz79KRqM5nQ-3ivRh-440" edge="1">
                    <mxGeometry relative="1" as="geometry"/>
                </mxCell>
                <mxCell id="T9Qwz79KRqM5nQ-3ivRh-452" style="edgeStyle=orthogonalEdgeStyle;rounded=0;orthogonalLoop=1;jettySize=auto;html=1;exitX=0;exitY=0.5;exitDx=0;exitDy=0;entryX=0;entryY=0.5;entryDx=0;entryDy=0;" parent="T9Qwz79KRqM5nQ-3ivRh-289" source="T9Qwz79KRqM5nQ-3ivRh-441" target="T9Qwz79KRqM5nQ-3ivRh-451" edge="1">
                    <mxGeometry relative="1" as="geometry">
                        <Array as="points">
                            <mxPoint x="29" y="2000"/>
                            <mxPoint x="29" y="2270"/>
                        </Array>
                    </mxGeometry>
                </mxCell>
                <mxCell id="T9Qwz79KRqM5nQ-3ivRh-441" value="" style="rhombus;whiteSpace=wrap;html=1;" parent="T9Qwz79KRqM5nQ-3ivRh-289" vertex="1">
                    <mxGeometry x="69" y="1960" width="80" height="80" as="geometry"/>
                </mxCell>
                <mxCell id="T9Qwz79KRqM5nQ-3ivRh-445" value="" style="ellipse;html=1;shape=endState;fillColor=#000000;strokeColor=#ff0000;" parent="T9Qwz79KRqM5nQ-3ivRh-289" vertex="1">
                    <mxGeometry x="94" y="2180" width="30" height="30" as="geometry"/>
                </mxCell>
                <mxCell id="T9Qwz79KRqM5nQ-3ivRh-451" value="&lt;font style=&quot;font-size: 18px;&quot;&gt;选择智能调整&lt;/font&gt;" style="rounded=1;whiteSpace=wrap;html=1;" parent="T9Qwz79KRqM5nQ-3ivRh-289" vertex="1">
                    <mxGeometry x="49" y="2240" width="120" height="60" as="geometry"/>
                </mxCell>
                <mxCell id="T9Qwz79KRqM5nQ-3ivRh-464" value="" style="edgeStyle=orthogonalEdgeStyle;rounded=0;orthogonalLoop=1;jettySize=auto;html=1;" parent="T9Qwz79KRqM5nQ-3ivRh-289" source="T9Qwz79KRqM5nQ-3ivRh-455" target="T9Qwz79KRqM5nQ-3ivRh-462" edge="1">
                    <mxGeometry relative="1" as="geometry"/>
                </mxCell>
                <mxCell id="T9Qwz79KRqM5nQ-3ivRh-455" value="&lt;span style=&quot;font-size: 18px;&quot;&gt;查看调整详情&lt;/span&gt;" style="rounded=1;whiteSpace=wrap;html=1;" parent="T9Qwz79KRqM5nQ-3ivRh-289" vertex="1">
                    <mxGeometry x="49" y="2350" width="120" height="60" as="geometry"/>
                </mxCell>
                <mxCell id="T9Qwz79KRqM5nQ-3ivRh-467" value="" style="edgeStyle=orthogonalEdgeStyle;rounded=0;orthogonalLoop=1;jettySize=auto;html=1;" parent="T9Qwz79KRqM5nQ-3ivRh-289" source="T9Qwz79KRqM5nQ-3ivRh-457" target="T9Qwz79KRqM5nQ-3ivRh-466" edge="1">
                    <mxGeometry relative="1" as="geometry"/>
                </mxCell>
                <mxCell id="T9Qwz79KRqM5nQ-3ivRh-457" value="&lt;span style=&quot;font-size: 18px;&quot;&gt;选择不修改&lt;/span&gt;" style="rounded=1;whiteSpace=wrap;html=1;" parent="T9Qwz79KRqM5nQ-3ivRh-289" vertex="1">
                    <mxGeometry x="49" y="2580" width="120" height="60" as="geometry"/>
                </mxCell>
                <mxCell id="T9Qwz79KRqM5nQ-3ivRh-465" value="" style="edgeStyle=orthogonalEdgeStyle;rounded=0;orthogonalLoop=1;jettySize=auto;html=1;" parent="T9Qwz79KRqM5nQ-3ivRh-289" source="T9Qwz79KRqM5nQ-3ivRh-462" target="T9Qwz79KRqM5nQ-3ivRh-457" edge="1">
                    <mxGeometry relative="1" as="geometry"/>
                </mxCell>
                <mxCell id="T9Qwz79KRqM5nQ-3ivRh-471" style="edgeStyle=orthogonalEdgeStyle;rounded=0;orthogonalLoop=1;jettySize=auto;html=1;exitX=0;exitY=0.5;exitDx=0;exitDy=0;entryX=0;entryY=0.5;entryDx=0;entryDy=0;" parent="T9Qwz79KRqM5nQ-3ivRh-289" source="T9Qwz79KRqM5nQ-3ivRh-462" target="T9Qwz79KRqM5nQ-3ivRh-470" edge="1">
                    <mxGeometry relative="1" as="geometry">
                        <Array as="points">
                            <mxPoint x="29" y="2500"/>
                            <mxPoint x="29" y="2780"/>
                        </Array>
                    </mxGeometry>
                </mxCell>
                <mxCell id="T9Qwz79KRqM5nQ-3ivRh-462" value="" style="rhombus;whiteSpace=wrap;html=1;" parent="T9Qwz79KRqM5nQ-3ivRh-289" vertex="1">
                    <mxGeometry x="69" y="2460" width="80" height="80" as="geometry"/>
                </mxCell>
                <mxCell id="T9Qwz79KRqM5nQ-3ivRh-466" value="" style="ellipse;html=1;shape=endState;fillColor=#000000;strokeColor=#ff0000;" parent="T9Qwz79KRqM5nQ-3ivRh-289" vertex="1">
                    <mxGeometry x="94" y="2682" width="30" height="30" as="geometry"/>
                </mxCell>
                <mxCell id="T9Qwz79KRqM5nQ-3ivRh-470" value="&lt;span style=&quot;font-size: 18px;&quot;&gt;确认修改&lt;/span&gt;" style="rounded=1;whiteSpace=wrap;html=1;" parent="T9Qwz79KRqM5nQ-3ivRh-289" vertex="1">
                    <mxGeometry x="49" y="2750" width="120" height="60" as="geometry"/>
                </mxCell>
                <mxCell id="T9Qwz79KRqM5nQ-3ivRh-290" value="系统" style="swimlane;startSize=20;html=1;" parent="T9Qwz79KRqM5nQ-3ivRh-288" vertex="1">
                    <mxGeometry x="200" y="20" width="200" height="2920" as="geometry"/>
                </mxCell>
                <mxCell id="T9Qwz79KRqM5nQ-3ivRh-303" value="&lt;span style=&quot;font-size: 18px;&quot;&gt;展示需求填写页面&lt;/span&gt;" style="rounded=1;whiteSpace=wrap;html=1;" parent="T9Qwz79KRqM5nQ-3ivRh-290" vertex="1">
                    <mxGeometry x="55" y="130" width="120" height="60" as="geometry"/>
                </mxCell>
                <mxCell id="T9Qwz79KRqM5nQ-3ivRh-309" value="" style="edgeStyle=orthogonalEdgeStyle;rounded=0;orthogonalLoop=1;jettySize=auto;html=1;" parent="T9Qwz79KRqM5nQ-3ivRh-290" source="T9Qwz79KRqM5nQ-3ivRh-306" target="T9Qwz79KRqM5nQ-3ivRh-308" edge="1">
                    <mxGeometry relative="1" as="geometry"/>
                </mxCell>
                <mxCell id="T9Qwz79KRqM5nQ-3ivRh-306" value="&lt;span style=&quot;font-size: 18px;&quot;&gt;格式化需求，封装为报文&lt;/span&gt;" style="rounded=1;whiteSpace=wrap;html=1;" parent="T9Qwz79KRqM5nQ-3ivRh-290" vertex="1">
                    <mxGeometry x="55" y="290" width="120" height="60" as="geometry"/>
                </mxCell>
                <mxCell id="T9Qwz79KRqM5nQ-3ivRh-308" value="&lt;font style=&quot;font-size: 18px;&quot;&gt;向AI发送需求报文&lt;/font&gt;" style="rounded=1;whiteSpace=wrap;html=1;" parent="T9Qwz79KRqM5nQ-3ivRh-290" vertex="1">
                    <mxGeometry x="55" y="390" width="120" height="60" as="geometry"/>
                </mxCell>
                <mxCell id="T9Qwz79KRqM5nQ-3ivRh-314" value="&lt;font style=&quot;font-size: 18px;&quot;&gt;解读报文，生成计划页面&lt;/font&gt;" style="rounded=1;whiteSpace=wrap;html=1;" parent="T9Qwz79KRqM5nQ-3ivRh-290" vertex="1">
                    <mxGeometry x="55" y="490" width="120" height="60" as="geometry"/>
                </mxCell>
                <mxCell id="T9Qwz79KRqM5nQ-3ivRh-318" value="&lt;span style=&quot;font-size: 18px;&quot;&gt;向百度地图发送请求报文&lt;/span&gt;" style="rounded=1;whiteSpace=wrap;html=1;" parent="T9Qwz79KRqM5nQ-3ivRh-290" vertex="1">
                    <mxGeometry x="55" y="590" width="120" height="60" as="geometry"/>
                </mxCell>
                <mxCell id="T9Qwz79KRqM5nQ-3ivRh-323" value="&lt;font style=&quot;font-size: 18px;&quot;&gt;生成景点详情页面&lt;/font&gt;" style="rounded=1;whiteSpace=wrap;html=1;" parent="T9Qwz79KRqM5nQ-3ivRh-290" vertex="1">
                    <mxGeometry x="55" y="790" width="120" height="60" as="geometry"/>
                </mxCell>
                <mxCell id="T9Qwz79KRqM5nQ-3ivRh-404" value="" style="edgeStyle=orthogonalEdgeStyle;rounded=0;orthogonalLoop=1;jettySize=auto;html=1;" parent="T9Qwz79KRqM5nQ-3ivRh-290" source="T9Qwz79KRqM5nQ-3ivRh-328" target="T9Qwz79KRqM5nQ-3ivRh-401" edge="1">
                    <mxGeometry relative="1" as="geometry"/>
                </mxCell>
                <mxCell id="T9Qwz79KRqM5nQ-3ivRh-328" value="&lt;font style=&quot;font-size: 18px;&quot;&gt;保存到数据库&lt;/font&gt;" style="rounded=1;whiteSpace=wrap;html=1;" parent="T9Qwz79KRqM5nQ-3ivRh-290" vertex="1">
                    <mxGeometry x="55" y="1020" width="120" height="60" as="geometry"/>
                </mxCell>
                <mxCell id="T9Qwz79KRqM5nQ-3ivRh-401" value="&lt;span style=&quot;font-size: 18px;&quot;&gt;展示首页&lt;/span&gt;" style="rounded=1;whiteSpace=wrap;html=1;" parent="T9Qwz79KRqM5nQ-3ivRh-290" vertex="1">
                    <mxGeometry x="55" y="1120" width="120" height="60" as="geometry"/>
                </mxCell>
                <mxCell id="T9Qwz79KRqM5nQ-3ivRh-419" value="&lt;span style=&quot;font-size: 18px;&quot;&gt;向AI发送实时调整报文&lt;/span&gt;" style="rounded=1;whiteSpace=wrap;html=1;" parent="T9Qwz79KRqM5nQ-3ivRh-290" vertex="1">
                    <mxGeometry x="55" y="1483" width="120" height="60" as="geometry"/>
                </mxCell>
                <mxCell id="T9Qwz79KRqM5nQ-3ivRh-427" value="&lt;span style=&quot;font-size: 18px;&quot;&gt;解读报文，生成页面&lt;/span&gt;" style="rounded=1;whiteSpace=wrap;html=1;" parent="T9Qwz79KRqM5nQ-3ivRh-290" vertex="1">
                    <mxGeometry x="55" y="1590" width="120" height="60" as="geometry"/>
                </mxCell>
                <mxCell id="T9Qwz79KRqM5nQ-3ivRh-438" value="&lt;span style=&quot;font-size: 18px;&quot;&gt;分日展示行程&lt;/span&gt;" style="rounded=1;whiteSpace=wrap;html=1;" parent="T9Qwz79KRqM5nQ-3ivRh-290" vertex="1">
                    <mxGeometry x="55" y="1830" width="120" height="60" as="geometry"/>
                </mxCell>
                <mxCell id="T9Qwz79KRqM5nQ-3ivRh-458" value="" style="edgeStyle=orthogonalEdgeStyle;rounded=0;orthogonalLoop=1;jettySize=auto;html=1;" parent="T9Qwz79KRqM5nQ-3ivRh-290" source="T9Qwz79KRqM5nQ-3ivRh-453" target="T9Qwz79KRqM5nQ-3ivRh-456" edge="1">
                    <mxGeometry relative="1" as="geometry"/>
                </mxCell>
                <mxCell id="T9Qwz79KRqM5nQ-3ivRh-453" value="&lt;span style=&quot;font-size: 18px;&quot;&gt;分时展示详细行程&lt;/span&gt;" style="rounded=1;whiteSpace=wrap;html=1;" parent="T9Qwz79KRqM5nQ-3ivRh-290" vertex="1">
                    <mxGeometry x="55" y="2240" width="120" height="60" as="geometry"/>
                </mxCell>
                <mxCell id="T9Qwz79KRqM5nQ-3ivRh-456" value="&lt;span style=&quot;font-size: 18px;&quot;&gt;展示调整详情&lt;/span&gt;" style="rounded=1;whiteSpace=wrap;html=1;" parent="T9Qwz79KRqM5nQ-3ivRh-290" vertex="1">
                    <mxGeometry x="55" y="2350" width="120" height="60" as="geometry"/>
                </mxCell>
                <mxCell id="T9Qwz79KRqM5nQ-3ivRh-477" value="" style="edgeStyle=orthogonalEdgeStyle;rounded=0;orthogonalLoop=1;jettySize=auto;html=1;" parent="T9Qwz79KRqM5nQ-3ivRh-290" source="T9Qwz79KRqM5nQ-3ivRh-472" target="T9Qwz79KRqM5nQ-3ivRh-484" edge="1">
                    <mxGeometry relative="1" as="geometry">
                        <mxPoint x="100" y="2860" as="targetPoint"/>
                    </mxGeometry>
                </mxCell>
                <mxCell id="T9Qwz79KRqM5nQ-3ivRh-472" value="&lt;span style=&quot;font-size: 18px;&quot;&gt;修改计划&lt;/span&gt;" style="rounded=1;whiteSpace=wrap;html=1;" parent="T9Qwz79KRqM5nQ-3ivRh-290" vertex="1">
                    <mxGeometry x="40" y="2750" width="120" height="60" as="geometry"/>
                </mxCell>
                <mxCell id="T9Qwz79KRqM5nQ-3ivRh-484" value="" style="ellipse;html=1;shape=endState;fillColor=#000000;strokeColor=#ff0000;" parent="T9Qwz79KRqM5nQ-3ivRh-290" vertex="1">
                    <mxGeometry x="85" y="2845" width="30" height="30" as="geometry"/>
                </mxCell>
                <mxCell id="T9Qwz79KRqM5nQ-3ivRh-486" value="&lt;font style=&quot;font-size: 18px;&quot;&gt;生成计划详情页面&lt;/font&gt;" style="rounded=1;whiteSpace=wrap;html=1;" parent="T9Qwz79KRqM5nQ-3ivRh-290" vertex="1">
                    <mxGeometry x="55" y="690" width="120" height="60" as="geometry"/>
                </mxCell>
                <mxCell id="T9Qwz79KRqM5nQ-3ivRh-291" value="文心一言" style="swimlane;startSize=20;html=1;" parent="T9Qwz79KRqM5nQ-3ivRh-288" vertex="1">
                    <mxGeometry x="400" y="20" width="200" height="2920" as="geometry"/>
                </mxCell>
                <mxCell id="T9Qwz79KRqM5nQ-3ivRh-313" value="" style="edgeStyle=orthogonalEdgeStyle;rounded=0;orthogonalLoop=1;jettySize=auto;html=1;" parent="T9Qwz79KRqM5nQ-3ivRh-291" source="T9Qwz79KRqM5nQ-3ivRh-310" target="T9Qwz79KRqM5nQ-3ivRh-312" edge="1">
                    <mxGeometry relative="1" as="geometry"/>
                </mxCell>
                <mxCell id="T9Qwz79KRqM5nQ-3ivRh-310" value="&lt;span style=&quot;font-size: 18px;&quot;&gt;生成应答&lt;/span&gt;" style="rounded=1;whiteSpace=wrap;html=1;" parent="T9Qwz79KRqM5nQ-3ivRh-291" vertex="1">
                    <mxGeometry x="49" y="390" width="120" height="60" as="geometry"/>
                </mxCell>
                <mxCell id="T9Qwz79KRqM5nQ-3ivRh-312" value="&lt;span style=&quot;font-size: 18px;&quot;&gt;发送应答报文&lt;/span&gt;" style="rounded=1;whiteSpace=wrap;html=1;" parent="T9Qwz79KRqM5nQ-3ivRh-291" vertex="1">
                    <mxGeometry x="49" y="490" width="120" height="60" as="geometry"/>
                </mxCell>
                <mxCell id="T9Qwz79KRqM5nQ-3ivRh-421" value="" style="edgeStyle=orthogonalEdgeStyle;rounded=0;orthogonalLoop=1;jettySize=auto;html=1;" parent="T9Qwz79KRqM5nQ-3ivRh-291" source="T9Qwz79KRqM5nQ-3ivRh-422" target="T9Qwz79KRqM5nQ-3ivRh-423" edge="1">
                    <mxGeometry relative="1" as="geometry"/>
                </mxCell>
                <mxCell id="T9Qwz79KRqM5nQ-3ivRh-422" value="&lt;span style=&quot;font-size: 18px;&quot;&gt;生成应答&lt;/span&gt;" style="rounded=1;whiteSpace=wrap;html=1;" parent="T9Qwz79KRqM5nQ-3ivRh-291" vertex="1">
                    <mxGeometry x="63" y="1483" width="120" height="60" as="geometry"/>
                </mxCell>
                <mxCell id="T9Qwz79KRqM5nQ-3ivRh-423" value="&lt;span style=&quot;font-size: 18px;&quot;&gt;发送应答报文&lt;/span&gt;" style="rounded=1;whiteSpace=wrap;html=1;" parent="T9Qwz79KRqM5nQ-3ivRh-291" vertex="1">
                    <mxGeometry x="63" y="1590" width="120" height="60" as="geometry"/>
                </mxCell>
                <mxCell id="T9Qwz79KRqM5nQ-3ivRh-292" value="百度地图" style="swimlane;startSize=20;html=1;" parent="T9Qwz79KRqM5nQ-3ivRh-288" vertex="1">
                    <mxGeometry x="600" y="20" width="200" height="2920" as="geometry"/>
                </mxCell>
                <mxCell id="T9Qwz79KRqM5nQ-3ivRh-485" value="&lt;font style=&quot;font-size: 18px;&quot;&gt;返回路线信息报文&lt;/font&gt;" style="rounded=1;whiteSpace=wrap;html=1;" parent="T9Qwz79KRqM5nQ-3ivRh-292" vertex="1">
                    <mxGeometry x="59" y="590" width="120" height="60" as="geometry"/>
                </mxCell>
                <mxCell id="T9Qwz79KRqM5nQ-3ivRh-304" style="edgeStyle=orthogonalEdgeStyle;rounded=0;orthogonalLoop=1;jettySize=auto;html=1;entryX=1;entryY=0.5;entryDx=0;entryDy=0;" parent="T9Qwz79KRqM5nQ-3ivRh-288" source="T9Qwz79KRqM5nQ-3ivRh-303" target="T9Qwz79KRqM5nQ-3ivRh-275" edge="1">
                    <mxGeometry relative="1" as="geometry">
                        <Array as="points">
                            <mxPoint x="315" y="270"/>
                        </Array>
                    </mxGeometry>
                </mxCell>
                <mxCell id="T9Qwz79KRqM5nQ-3ivRh-305" style="edgeStyle=orthogonalEdgeStyle;rounded=0;orthogonalLoop=1;jettySize=auto;html=1;entryX=0;entryY=0.5;entryDx=0;entryDy=0;" parent="T9Qwz79KRqM5nQ-3ivRh-288" source="T9Qwz79KRqM5nQ-3ivRh-273" target="T9Qwz79KRqM5nQ-3ivRh-303" edge="1">
                    <mxGeometry relative="1" as="geometry"/>
                </mxCell>
                <mxCell id="T9Qwz79KRqM5nQ-3ivRh-307" style="edgeStyle=orthogonalEdgeStyle;rounded=0;orthogonalLoop=1;jettySize=auto;html=1;entryX=0;entryY=0.5;entryDx=0;entryDy=0;" parent="T9Qwz79KRqM5nQ-3ivRh-288" source="T9Qwz79KRqM5nQ-3ivRh-275" target="T9Qwz79KRqM5nQ-3ivRh-306" edge="1">
                    <mxGeometry relative="1" as="geometry">
                        <Array as="points">
                            <mxPoint x="105" y="340"/>
                        </Array>
                    </mxGeometry>
                </mxCell>
                <mxCell id="T9Qwz79KRqM5nQ-3ivRh-311" value="" style="edgeStyle=orthogonalEdgeStyle;rounded=0;orthogonalLoop=1;jettySize=auto;html=1;" parent="T9Qwz79KRqM5nQ-3ivRh-288" source="T9Qwz79KRqM5nQ-3ivRh-308" target="T9Qwz79KRqM5nQ-3ivRh-310" edge="1">
                    <mxGeometry relative="1" as="geometry"/>
                </mxCell>
                <mxCell id="T9Qwz79KRqM5nQ-3ivRh-316" value="" style="edgeStyle=orthogonalEdgeStyle;rounded=0;orthogonalLoop=1;jettySize=auto;html=1;" parent="T9Qwz79KRqM5nQ-3ivRh-288" source="T9Qwz79KRqM5nQ-3ivRh-312" target="T9Qwz79KRqM5nQ-3ivRh-314" edge="1">
                    <mxGeometry relative="1" as="geometry"/>
                </mxCell>
                <mxCell id="T9Qwz79KRqM5nQ-3ivRh-317" value="" style="edgeStyle=orthogonalEdgeStyle;rounded=0;orthogonalLoop=1;jettySize=auto;html=1;" parent="T9Qwz79KRqM5nQ-3ivRh-288" source="T9Qwz79KRqM5nQ-3ivRh-314" target="T9Qwz79KRqM5nQ-3ivRh-277" edge="1">
                    <mxGeometry relative="1" as="geometry"/>
                </mxCell>
                <mxCell id="T9Qwz79KRqM5nQ-3ivRh-319" style="edgeStyle=orthogonalEdgeStyle;rounded=0;orthogonalLoop=1;jettySize=auto;html=1;exitX=0.5;exitY=1;exitDx=0;exitDy=0;entryX=0;entryY=0.5;entryDx=0;entryDy=0;" parent="T9Qwz79KRqM5nQ-3ivRh-288" source="T9Qwz79KRqM5nQ-3ivRh-277" target="T9Qwz79KRqM5nQ-3ivRh-318" edge="1">
                    <mxGeometry relative="1" as="geometry"/>
                </mxCell>
                <mxCell id="T9Qwz79KRqM5nQ-3ivRh-324" value="" style="edgeStyle=orthogonalEdgeStyle;rounded=0;orthogonalLoop=1;jettySize=auto;html=1;" parent="T9Qwz79KRqM5nQ-3ivRh-288" source="T9Qwz79KRqM5nQ-3ivRh-282" target="T9Qwz79KRqM5nQ-3ivRh-323" edge="1">
                    <mxGeometry relative="1" as="geometry"/>
                </mxCell>
                <mxCell id="T9Qwz79KRqM5nQ-3ivRh-325" style="edgeStyle=orthogonalEdgeStyle;rounded=0;orthogonalLoop=1;jettySize=auto;html=1;entryX=1;entryY=0.5;entryDx=0;entryDy=0;" parent="T9Qwz79KRqM5nQ-3ivRh-288" source="T9Qwz79KRqM5nQ-3ivRh-323" target="T9Qwz79KRqM5nQ-3ivRh-284" edge="1">
                    <mxGeometry relative="1" as="geometry">
                        <Array as="points">
                            <mxPoint x="315" y="960"/>
                        </Array>
                    </mxGeometry>
                </mxCell>
                <mxCell id="T9Qwz79KRqM5nQ-3ivRh-329" style="edgeStyle=orthogonalEdgeStyle;rounded=0;orthogonalLoop=1;jettySize=auto;html=1;entryX=0;entryY=0.5;entryDx=0;entryDy=0;" parent="T9Qwz79KRqM5nQ-3ivRh-288" source="T9Qwz79KRqM5nQ-3ivRh-286" target="T9Qwz79KRqM5nQ-3ivRh-328" edge="1">
                    <mxGeometry relative="1" as="geometry"/>
                </mxCell>
                <mxCell id="T9Qwz79KRqM5nQ-3ivRh-420" value="" style="edgeStyle=orthogonalEdgeStyle;rounded=0;orthogonalLoop=1;jettySize=auto;html=1;" parent="T9Qwz79KRqM5nQ-3ivRh-288" source="T9Qwz79KRqM5nQ-3ivRh-417" target="T9Qwz79KRqM5nQ-3ivRh-419" edge="1">
                    <mxGeometry relative="1" as="geometry"/>
                </mxCell>
                <mxCell id="T9Qwz79KRqM5nQ-3ivRh-426" value="" style="edgeStyle=orthogonalEdgeStyle;rounded=0;orthogonalLoop=1;jettySize=auto;html=1;" parent="T9Qwz79KRqM5nQ-3ivRh-288" source="T9Qwz79KRqM5nQ-3ivRh-419" target="T9Qwz79KRqM5nQ-3ivRh-422" edge="1">
                    <mxGeometry relative="1" as="geometry"/>
                </mxCell>
                <mxCell id="T9Qwz79KRqM5nQ-3ivRh-428" value="" style="edgeStyle=orthogonalEdgeStyle;rounded=0;orthogonalLoop=1;jettySize=auto;html=1;" parent="T9Qwz79KRqM5nQ-3ivRh-288" source="T9Qwz79KRqM5nQ-3ivRh-423" target="T9Qwz79KRqM5nQ-3ivRh-427" edge="1">
                    <mxGeometry relative="1" as="geometry"/>
                </mxCell>
                <mxCell id="T9Qwz79KRqM5nQ-3ivRh-429" value="" style="edgeStyle=orthogonalEdgeStyle;rounded=0;orthogonalLoop=1;jettySize=auto;html=1;" parent="T9Qwz79KRqM5nQ-3ivRh-288" source="T9Qwz79KRqM5nQ-3ivRh-401" target="T9Qwz79KRqM5nQ-3ivRh-409" edge="1">
                    <mxGeometry relative="1" as="geometry"/>
                </mxCell>
                <mxCell id="T9Qwz79KRqM5nQ-3ivRh-431" value="" style="edgeStyle=orthogonalEdgeStyle;rounded=0;orthogonalLoop=1;jettySize=auto;html=1;" parent="T9Qwz79KRqM5nQ-3ivRh-288" source="T9Qwz79KRqM5nQ-3ivRh-427" target="T9Qwz79KRqM5nQ-3ivRh-430" edge="1">
                    <mxGeometry relative="1" as="geometry"/>
                </mxCell>
                <mxCell id="T9Qwz79KRqM5nQ-3ivRh-439" value="" style="edgeStyle=orthogonalEdgeStyle;rounded=0;orthogonalLoop=1;jettySize=auto;html=1;" parent="T9Qwz79KRqM5nQ-3ivRh-288" source="T9Qwz79KRqM5nQ-3ivRh-434" target="T9Qwz79KRqM5nQ-3ivRh-438" edge="1">
                    <mxGeometry relative="1" as="geometry"/>
                </mxCell>
                <mxCell id="T9Qwz79KRqM5nQ-3ivRh-443" style="edgeStyle=orthogonalEdgeStyle;rounded=0;orthogonalLoop=1;jettySize=auto;html=1;exitX=0.5;exitY=1;exitDx=0;exitDy=0;entryX=1;entryY=0.5;entryDx=0;entryDy=0;" parent="T9Qwz79KRqM5nQ-3ivRh-288" source="T9Qwz79KRqM5nQ-3ivRh-438" target="T9Qwz79KRqM5nQ-3ivRh-441" edge="1">
                    <mxGeometry relative="1" as="geometry"/>
                </mxCell>
                <mxCell id="T9Qwz79KRqM5nQ-3ivRh-454" value="" style="edgeStyle=orthogonalEdgeStyle;rounded=0;orthogonalLoop=1;jettySize=auto;html=1;" parent="T9Qwz79KRqM5nQ-3ivRh-288" source="T9Qwz79KRqM5nQ-3ivRh-451" target="T9Qwz79KRqM5nQ-3ivRh-453" edge="1">
                    <mxGeometry relative="1" as="geometry"/>
                </mxCell>
                <mxCell id="T9Qwz79KRqM5nQ-3ivRh-459" value="" style="edgeStyle=orthogonalEdgeStyle;rounded=0;orthogonalLoop=1;jettySize=auto;html=1;" parent="T9Qwz79KRqM5nQ-3ivRh-288" source="T9Qwz79KRqM5nQ-3ivRh-456" target="T9Qwz79KRqM5nQ-3ivRh-455" edge="1">
                    <mxGeometry relative="1" as="geometry"/>
                </mxCell>
                <mxCell id="T9Qwz79KRqM5nQ-3ivRh-473" value="" style="edgeStyle=orthogonalEdgeStyle;rounded=0;orthogonalLoop=1;jettySize=auto;html=1;" parent="T9Qwz79KRqM5nQ-3ivRh-288" source="T9Qwz79KRqM5nQ-3ivRh-470" target="T9Qwz79KRqM5nQ-3ivRh-472" edge="1">
                    <mxGeometry relative="1" as="geometry"/>
                </mxCell>
                <mxCell id="T9Qwz79KRqM5nQ-3ivRh-487" value="" style="edgeStyle=orthogonalEdgeStyle;rounded=0;orthogonalLoop=1;jettySize=auto;html=1;" parent="T9Qwz79KRqM5nQ-3ivRh-288" source="T9Qwz79KRqM5nQ-3ivRh-486" target="T9Qwz79KRqM5nQ-3ivRh-320" edge="1">
                    <mxGeometry relative="1" as="geometry"/>
                </mxCell>
                <mxCell id="T9Qwz79KRqM5nQ-3ivRh-488" style="edgeStyle=orthogonalEdgeStyle;rounded=0;orthogonalLoop=1;jettySize=auto;html=1;exitX=1;exitY=0.5;exitDx=0;exitDy=0;entryX=0;entryY=0.5;entryDx=0;entryDy=0;" parent="T9Qwz79KRqM5nQ-3ivRh-288" source="T9Qwz79KRqM5nQ-3ivRh-318" target="T9Qwz79KRqM5nQ-3ivRh-485" edge="1">
                    <mxGeometry relative="1" as="geometry"/>
                </mxCell>
                <mxCell id="T9Qwz79KRqM5nQ-3ivRh-489" style="edgeStyle=orthogonalEdgeStyle;rounded=0;orthogonalLoop=1;jettySize=auto;html=1;exitX=0.5;exitY=1;exitDx=0;exitDy=0;entryX=1;entryY=0.5;entryDx=0;entryDy=0;" parent="T9Qwz79KRqM5nQ-3ivRh-288" source="T9Qwz79KRqM5nQ-3ivRh-485" target="T9Qwz79KRqM5nQ-3ivRh-486" edge="1">
                    <mxGeometry relative="1" as="geometry"/>
                </mxCell>
                <mxCell id="T9Qwz79KRqM5nQ-3ivRh-478" value="Pool" style="swimlane;childLayout=stackLayout;resizeParent=1;resizeParentMax=0;startSize=20;html=1;" parent="1" vertex="1">
                    <mxGeometry x="3920" y="1180" width="800" height="830" as="geometry"/>
                </mxCell>
                <mxCell id="T9Qwz79KRqM5nQ-3ivRh-479" value="用户" style="swimlane;startSize=20;html=1;" parent="T9Qwz79KRqM5nQ-3ivRh-478" vertex="1">
                    <mxGeometry y="20" width="200" height="810" as="geometry"/>
                </mxCell>
                <mxCell id="T9Qwz79KRqM5nQ-3ivRh-514" value="&lt;span style=&quot;font-size: 18px;&quot;&gt;点击智能调整&lt;/span&gt;" style="rounded=1;whiteSpace=wrap;html=1;" parent="T9Qwz79KRqM5nQ-3ivRh-479" vertex="1">
                    <mxGeometry x="40" y="210" width="120" height="60" as="geometry"/>
                </mxCell>
                <mxCell id="T9Qwz79KRqM5nQ-3ivRh-528" style="edgeStyle=orthogonalEdgeStyle;rounded=0;orthogonalLoop=1;jettySize=auto;html=1;exitX=0.5;exitY=1;exitDx=0;exitDy=0;entryX=0.5;entryY=0;entryDx=0;entryDy=0;" parent="T9Qwz79KRqM5nQ-3ivRh-479" source="T9Qwz79KRqM5nQ-3ivRh-521" target="T9Qwz79KRqM5nQ-3ivRh-522" edge="1">
                    <mxGeometry relative="1" as="geometry"/>
                </mxCell>
                <mxCell id="T9Qwz79KRqM5nQ-3ivRh-534" style="edgeStyle=orthogonalEdgeStyle;rounded=0;orthogonalLoop=1;jettySize=auto;html=1;exitX=0;exitY=0.5;exitDx=0;exitDy=0;entryX=0;entryY=0.5;entryDx=0;entryDy=0;" parent="T9Qwz79KRqM5nQ-3ivRh-479" source="T9Qwz79KRqM5nQ-3ivRh-521" target="T9Qwz79KRqM5nQ-3ivRh-525" edge="1">
                    <mxGeometry relative="1" as="geometry">
                        <Array as="points">
                            <mxPoint x="20" y="440"/>
                            <mxPoint x="20" y="700"/>
                        </Array>
                    </mxGeometry>
                </mxCell>
                <mxCell id="T9Qwz79KRqM5nQ-3ivRh-521" value="" style="rhombus;whiteSpace=wrap;html=1;" parent="T9Qwz79KRqM5nQ-3ivRh-479" vertex="1">
                    <mxGeometry x="60" y="400" width="80" height="80" as="geometry"/>
                </mxCell>
                <mxCell id="T9Qwz79KRqM5nQ-3ivRh-533" value="" style="edgeStyle=orthogonalEdgeStyle;rounded=0;orthogonalLoop=1;jettySize=auto;html=1;" parent="T9Qwz79KRqM5nQ-3ivRh-479" source="T9Qwz79KRqM5nQ-3ivRh-522" target="T9Qwz79KRqM5nQ-3ivRh-532" edge="1">
                    <mxGeometry relative="1" as="geometry"/>
                </mxCell>
                <mxCell id="T9Qwz79KRqM5nQ-3ivRh-522" value="&lt;span style=&quot;font-size: 18px;&quot;&gt;选择不修改&lt;/span&gt;" style="rounded=1;whiteSpace=wrap;html=1;" parent="T9Qwz79KRqM5nQ-3ivRh-479" vertex="1">
                    <mxGeometry x="40" y="524" width="120" height="60" as="geometry"/>
                </mxCell>
                <mxCell id="T9Qwz79KRqM5nQ-3ivRh-525" value="&lt;span style=&quot;font-size: 18px;&quot;&gt;确认修改&lt;/span&gt;" style="rounded=1;whiteSpace=wrap;html=1;" parent="T9Qwz79KRqM5nQ-3ivRh-479" vertex="1">
                    <mxGeometry x="40" y="670" width="120" height="60" as="geometry"/>
                </mxCell>
                <mxCell id="T9Qwz79KRqM5nQ-3ivRh-532" value="" style="ellipse;html=1;shape=endState;fillColor=#000000;strokeColor=#ff0000;" parent="T9Qwz79KRqM5nQ-3ivRh-479" vertex="1">
                    <mxGeometry x="85" y="620" width="30" height="30" as="geometry"/>
                </mxCell>
                <mxCell id="T9Qwz79KRqM5nQ-3ivRh-480" value="系统" style="swimlane;startSize=20;html=1;" parent="T9Qwz79KRqM5nQ-3ivRh-478" vertex="1">
                    <mxGeometry x="200" y="20" width="200" height="810" as="geometry"/>
                </mxCell>
                <mxCell id="T9Qwz79KRqM5nQ-3ivRh-508" value="&lt;font style=&quot;font-size: 18px;&quot;&gt;向AI发送检查计划报文&lt;/font&gt;" style="rounded=1;whiteSpace=wrap;html=1;" parent="T9Qwz79KRqM5nQ-3ivRh-480" vertex="1">
                    <mxGeometry x="40" y="120" width="120" height="60" as="geometry"/>
                </mxCell>
                <mxCell id="T9Qwz79KRqM5nQ-3ivRh-512" value="&lt;font style=&quot;font-size: 18px;&quot;&gt;展示紧急事件页面&lt;/font&gt;" style="rounded=1;whiteSpace=wrap;html=1;" parent="T9Qwz79KRqM5nQ-3ivRh-480" vertex="1">
                    <mxGeometry x="40" y="210" width="120" height="60" as="geometry"/>
                </mxCell>
                <mxCell id="T9Qwz79KRqM5nQ-3ivRh-516" value="&lt;font style=&quot;font-size: 18px;&quot;&gt;向AI发送请求调整报文&lt;/font&gt;" style="rounded=1;whiteSpace=wrap;html=1;" parent="T9Qwz79KRqM5nQ-3ivRh-480" vertex="1">
                    <mxGeometry x="40" y="310" width="120" height="60" as="geometry"/>
                </mxCell>
                <mxCell id="T9Qwz79KRqM5nQ-3ivRh-520" value="&lt;span style=&quot;font-size: 18px;&quot;&gt;展示计划调整信息&lt;/span&gt;" style="rounded=1;whiteSpace=wrap;html=1;" parent="T9Qwz79KRqM5nQ-3ivRh-480" vertex="1">
                    <mxGeometry x="40" y="410" width="120" height="60" as="geometry"/>
                </mxCell>
                <mxCell id="T9Qwz79KRqM5nQ-3ivRh-537" value="" style="edgeStyle=orthogonalEdgeStyle;rounded=0;orthogonalLoop=1;jettySize=auto;html=1;" parent="T9Qwz79KRqM5nQ-3ivRh-480" source="T9Qwz79KRqM5nQ-3ivRh-531" target="T9Qwz79KRqM5nQ-3ivRh-536" edge="1">
                    <mxGeometry relative="1" as="geometry"/>
                </mxCell>
                <mxCell id="T9Qwz79KRqM5nQ-3ivRh-531" value="&lt;span style=&quot;font-size: 18px;&quot;&gt;更新计划&lt;/span&gt;" style="rounded=1;whiteSpace=wrap;html=1;" parent="T9Qwz79KRqM5nQ-3ivRh-480" vertex="1">
                    <mxGeometry x="40" y="670" width="120" height="60" as="geometry"/>
                </mxCell>
                <mxCell id="T9Qwz79KRqM5nQ-3ivRh-536" value="" style="ellipse;html=1;shape=endState;fillColor=#000000;strokeColor=#ff0000;" parent="T9Qwz79KRqM5nQ-3ivRh-480" vertex="1">
                    <mxGeometry x="85" y="770" width="30" height="30" as="geometry"/>
                </mxCell>
                <mxCell id="T9Qwz79KRqM5nQ-3ivRh-481" value="文心一言" style="swimlane;startSize=20;html=1;" parent="T9Qwz79KRqM5nQ-3ivRh-478" vertex="1">
                    <mxGeometry x="400" y="20" width="200" height="810" as="geometry"/>
                </mxCell>
                <mxCell id="T9Qwz79KRqM5nQ-3ivRh-510" value="&lt;span style=&quot;font-size: 18px;&quot;&gt;检查并返回紧急事件报文&lt;/span&gt;" style="rounded=1;whiteSpace=wrap;html=1;" parent="T9Qwz79KRqM5nQ-3ivRh-481" vertex="1">
                    <mxGeometry x="40" y="120" width="120" height="60" as="geometry"/>
                </mxCell>
                <mxCell id="T9Qwz79KRqM5nQ-3ivRh-518" value="&lt;span style=&quot;font-size: 18px;&quot;&gt;搜索并返回调整报文&lt;/span&gt;" style="rounded=1;whiteSpace=wrap;html=1;" parent="T9Qwz79KRqM5nQ-3ivRh-481" vertex="1">
                    <mxGeometry x="40" y="310" width="120" height="60" as="geometry"/>
                </mxCell>
                <mxCell id="T9Qwz79KRqM5nQ-3ivRh-482" value="文心一言" style="swimlane;startSize=20;html=1;" parent="T9Qwz79KRqM5nQ-3ivRh-478" vertex="1">
                    <mxGeometry x="600" y="20" width="200" height="810" as="geometry"/>
                </mxCell>
                <mxCell id="T9Qwz79KRqM5nQ-3ivRh-511" value="" style="edgeStyle=orthogonalEdgeStyle;rounded=0;orthogonalLoop=1;jettySize=auto;html=1;" parent="T9Qwz79KRqM5nQ-3ivRh-478" source="T9Qwz79KRqM5nQ-3ivRh-508" target="T9Qwz79KRqM5nQ-3ivRh-510" edge="1">
                    <mxGeometry relative="1" as="geometry"/>
                </mxCell>
                <mxCell id="T9Qwz79KRqM5nQ-3ivRh-513" style="edgeStyle=orthogonalEdgeStyle;rounded=0;orthogonalLoop=1;jettySize=auto;html=1;entryX=1;entryY=0.5;entryDx=0;entryDy=0;" parent="T9Qwz79KRqM5nQ-3ivRh-478" source="T9Qwz79KRqM5nQ-3ivRh-510" target="T9Qwz79KRqM5nQ-3ivRh-512" edge="1">
                    <mxGeometry relative="1" as="geometry">
                        <Array as="points">
                            <mxPoint x="500" y="260"/>
                        </Array>
                    </mxGeometry>
                </mxCell>
                <mxCell id="T9Qwz79KRqM5nQ-3ivRh-515" value="" style="edgeStyle=orthogonalEdgeStyle;rounded=0;orthogonalLoop=1;jettySize=auto;html=1;" parent="T9Qwz79KRqM5nQ-3ivRh-478" source="T9Qwz79KRqM5nQ-3ivRh-512" target="T9Qwz79KRqM5nQ-3ivRh-514" edge="1">
                    <mxGeometry relative="1" as="geometry"/>
                </mxCell>
                <mxCell id="T9Qwz79KRqM5nQ-3ivRh-517" style="edgeStyle=orthogonalEdgeStyle;rounded=0;orthogonalLoop=1;jettySize=auto;html=1;exitX=0.5;exitY=1;exitDx=0;exitDy=0;entryX=0;entryY=0.5;entryDx=0;entryDy=0;" parent="T9Qwz79KRqM5nQ-3ivRh-478" source="T9Qwz79KRqM5nQ-3ivRh-514" target="T9Qwz79KRqM5nQ-3ivRh-516" edge="1">
                    <mxGeometry relative="1" as="geometry"/>
                </mxCell>
                <mxCell id="T9Qwz79KRqM5nQ-3ivRh-519" value="" style="edgeStyle=orthogonalEdgeStyle;rounded=0;orthogonalLoop=1;jettySize=auto;html=1;" parent="T9Qwz79KRqM5nQ-3ivRh-478" source="T9Qwz79KRqM5nQ-3ivRh-516" target="T9Qwz79KRqM5nQ-3ivRh-518" edge="1">
                    <mxGeometry relative="1" as="geometry"/>
                </mxCell>
                <mxCell id="T9Qwz79KRqM5nQ-3ivRh-526" style="edgeStyle=orthogonalEdgeStyle;rounded=0;orthogonalLoop=1;jettySize=auto;html=1;exitX=0.5;exitY=1;exitDx=0;exitDy=0;entryX=1;entryY=0.5;entryDx=0;entryDy=0;" parent="T9Qwz79KRqM5nQ-3ivRh-478" source="T9Qwz79KRqM5nQ-3ivRh-518" target="T9Qwz79KRqM5nQ-3ivRh-520" edge="1">
                    <mxGeometry relative="1" as="geometry"/>
                </mxCell>
                <mxCell id="T9Qwz79KRqM5nQ-3ivRh-529" style="edgeStyle=orthogonalEdgeStyle;rounded=0;orthogonalLoop=1;jettySize=auto;html=1;exitX=0;exitY=0.5;exitDx=0;exitDy=0;entryX=1;entryY=0.5;entryDx=0;entryDy=0;" parent="T9Qwz79KRqM5nQ-3ivRh-478" source="T9Qwz79KRqM5nQ-3ivRh-520" target="T9Qwz79KRqM5nQ-3ivRh-521" edge="1">
                    <mxGeometry relative="1" as="geometry"/>
                </mxCell>
                <mxCell id="T9Qwz79KRqM5nQ-3ivRh-535" value="" style="edgeStyle=orthogonalEdgeStyle;rounded=0;orthogonalLoop=1;jettySize=auto;html=1;" parent="T9Qwz79KRqM5nQ-3ivRh-478" source="T9Qwz79KRqM5nQ-3ivRh-525" target="T9Qwz79KRqM5nQ-3ivRh-531" edge="1">
                    <mxGeometry relative="1" as="geometry"/>
                </mxCell>
                <mxCell id="T9Qwz79KRqM5nQ-3ivRh-505" value="" style="edgeStyle=orthogonalEdgeStyle;rounded=0;orthogonalLoop=1;jettySize=auto;html=1;" parent="1" source="T9Qwz79KRqM5nQ-3ivRh-506" target="T9Qwz79KRqM5nQ-3ivRh-507" edge="1">
                    <mxGeometry relative="1" as="geometry"/>
                </mxCell>
                <mxCell id="T9Qwz79KRqM5nQ-3ivRh-506" value="" style="ellipse;html=1;shape=startState;fillColor=#000000;strokeColor=#ff0000;" parent="1" vertex="1">
                    <mxGeometry x="4005" y="1250" width="30" height="30" as="geometry"/>
                </mxCell>
                <mxCell id="T9Qwz79KRqM5nQ-3ivRh-509" value="" style="edgeStyle=orthogonalEdgeStyle;rounded=0;orthogonalLoop=1;jettySize=auto;html=1;" parent="1" source="T9Qwz79KRqM5nQ-3ivRh-507" target="T9Qwz79KRqM5nQ-3ivRh-508" edge="1">
                    <mxGeometry relative="1" as="geometry"/>
                </mxCell>
                <mxCell id="T9Qwz79KRqM5nQ-3ivRh-507" value="&lt;font style=&quot;font-size: 18px;&quot;&gt;点击紧急事件处理&lt;/font&gt;" style="rounded=1;whiteSpace=wrap;html=1;" parent="1" vertex="1">
                    <mxGeometry x="3960" y="1320" width="120" height="60" as="geometry"/>
                </mxCell>
                <mxCell id="T9Qwz79KRqM5nQ-3ivRh-538" value="Pool" style="swimlane;childLayout=stackLayout;resizeParent=1;resizeParentMax=0;startSize=20;html=1;" parent="1" vertex="1">
                    <mxGeometry x="6630" y="1180" width="800" height="1460" as="geometry"/>
                </mxCell>
                <mxCell id="T9Qwz79KRqM5nQ-3ivRh-539" value="用户" style="swimlane;startSize=20;html=1;" parent="T9Qwz79KRqM5nQ-3ivRh-538" vertex="1">
                    <mxGeometry y="20" width="200" height="1440" as="geometry"/>
                </mxCell>
                <mxCell id="T9Qwz79KRqM5nQ-3ivRh-585" value="" style="edgeStyle=orthogonalEdgeStyle;rounded=0;orthogonalLoop=1;jettySize=auto;html=1;" parent="T9Qwz79KRqM5nQ-3ivRh-539" source="T9Qwz79KRqM5nQ-3ivRh-580" target="T9Qwz79KRqM5nQ-3ivRh-584" edge="1">
                    <mxGeometry relative="1" as="geometry"/>
                </mxCell>
                <mxCell id="T9Qwz79KRqM5nQ-3ivRh-580" value="&lt;font style=&quot;font-size: 18px;&quot;&gt;点击我的行程&lt;/font&gt;" style="rounded=1;whiteSpace=wrap;html=1;" parent="T9Qwz79KRqM5nQ-3ivRh-539" vertex="1">
                    <mxGeometry x="40" y="119" width="120" height="60" as="geometry"/>
                </mxCell>
                <mxCell id="T9Qwz79KRqM5nQ-3ivRh-583" value="" style="edgeStyle=orthogonalEdgeStyle;rounded=0;orthogonalLoop=1;jettySize=auto;html=1;" parent="T9Qwz79KRqM5nQ-3ivRh-539" source="T9Qwz79KRqM5nQ-3ivRh-582" target="T9Qwz79KRqM5nQ-3ivRh-580" edge="1">
                    <mxGeometry relative="1" as="geometry"/>
                </mxCell>
                <mxCell id="T9Qwz79KRqM5nQ-3ivRh-582" value="" style="ellipse;html=1;shape=startState;fillColor=#000000;strokeColor=#ff0000;" parent="T9Qwz79KRqM5nQ-3ivRh-539" vertex="1">
                    <mxGeometry x="85" y="50" width="30" height="30" as="geometry"/>
                </mxCell>
                <mxCell id="T9Qwz79KRqM5nQ-3ivRh-588" value="" style="edgeStyle=orthogonalEdgeStyle;rounded=0;orthogonalLoop=1;jettySize=auto;html=1;" parent="T9Qwz79KRqM5nQ-3ivRh-539" source="T9Qwz79KRqM5nQ-3ivRh-584" target="T9Qwz79KRqM5nQ-3ivRh-587" edge="1">
                    <mxGeometry relative="1" as="geometry"/>
                </mxCell>
                <mxCell id="T9Qwz79KRqM5nQ-3ivRh-608" style="edgeStyle=orthogonalEdgeStyle;rounded=0;orthogonalLoop=1;jettySize=auto;html=1;exitX=0;exitY=0.5;exitDx=0;exitDy=0;entryX=0;entryY=0.5;entryDx=0;entryDy=0;" parent="T9Qwz79KRqM5nQ-3ivRh-539" source="T9Qwz79KRqM5nQ-3ivRh-584" target="T9Qwz79KRqM5nQ-3ivRh-607" edge="1">
                    <mxGeometry relative="1" as="geometry">
                        <Array as="points">
                            <mxPoint x="20" y="260"/>
                            <mxPoint x="20" y="870"/>
                        </Array>
                    </mxGeometry>
                </mxCell>
                <mxCell id="T9Qwz79KRqM5nQ-3ivRh-584" value="" style="rhombus;whiteSpace=wrap;html=1;" parent="T9Qwz79KRqM5nQ-3ivRh-539" vertex="1">
                    <mxGeometry x="60" y="220" width="80" height="80" as="geometry"/>
                </mxCell>
                <mxCell id="T9Qwz79KRqM5nQ-3ivRh-587" value="&lt;font style=&quot;font-size: 18px;&quot;&gt;查看行程详情&lt;/font&gt;" style="rounded=1;whiteSpace=wrap;html=1;" parent="T9Qwz79KRqM5nQ-3ivRh-539" vertex="1">
                    <mxGeometry x="40" y="340" width="120" height="60" as="geometry"/>
                </mxCell>
                <mxCell id="T9Qwz79KRqM5nQ-3ivRh-591" value="&lt;font style=&quot;font-size: 18px;&quot;&gt;查看详细规划&lt;/font&gt;" style="rounded=1;whiteSpace=wrap;html=1;" parent="T9Qwz79KRqM5nQ-3ivRh-539" vertex="1">
                    <mxGeometry x="40" y="450" width="120" height="60" as="geometry"/>
                </mxCell>
                <mxCell id="T9Qwz79KRqM5nQ-3ivRh-607" value="&lt;span style=&quot;font-size: 18px;&quot;&gt;点击修改行程&lt;/span&gt;" style="rounded=1;whiteSpace=wrap;html=1;" parent="T9Qwz79KRqM5nQ-3ivRh-539" vertex="1">
                    <mxGeometry x="40" y="840" width="120" height="60" as="geometry"/>
                </mxCell>
                <mxCell id="T9Qwz79KRqM5nQ-3ivRh-615" value="" style="edgeStyle=orthogonalEdgeStyle;rounded=0;orthogonalLoop=1;jettySize=auto;html=1;" parent="T9Qwz79KRqM5nQ-3ivRh-539" source="T9Qwz79KRqM5nQ-3ivRh-610" target="T9Qwz79KRqM5nQ-3ivRh-611" edge="1">
                    <mxGeometry relative="1" as="geometry"/>
                </mxCell>
                <mxCell id="T9Qwz79KRqM5nQ-3ivRh-610" value="&lt;span style=&quot;font-size: 18px;&quot;&gt;自定义修改&lt;/span&gt;" style="rounded=1;whiteSpace=wrap;html=1;" parent="T9Qwz79KRqM5nQ-3ivRh-539" vertex="1">
                    <mxGeometry x="40" y="948" width="120" height="60" as="geometry"/>
                </mxCell>
                <mxCell id="T9Qwz79KRqM5nQ-3ivRh-611" value="&lt;span style=&quot;font-size: 18px;&quot;&gt;保存修改&lt;/span&gt;" style="rounded=1;whiteSpace=wrap;html=1;" parent="T9Qwz79KRqM5nQ-3ivRh-539" vertex="1">
                    <mxGeometry x="40" y="1060" width="120" height="60" as="geometry"/>
                </mxCell>
                <mxCell id="T9Qwz79KRqM5nQ-3ivRh-540" value="系统" style="swimlane;startSize=20;html=1;" parent="T9Qwz79KRqM5nQ-3ivRh-538" vertex="1">
                    <mxGeometry x="200" y="20" width="200" height="1440" as="geometry"/>
                </mxCell>
                <mxCell id="T9Qwz79KRqM5nQ-3ivRh-589" value="&lt;span style=&quot;font-size: 18px;&quot;&gt;发送路线信息请求报文&lt;/span&gt;" style="rounded=1;whiteSpace=wrap;html=1;" parent="T9Qwz79KRqM5nQ-3ivRh-540" vertex="1">
                    <mxGeometry x="40" y="340" width="120" height="60" as="geometry"/>
                </mxCell>
                <mxCell id="T9Qwz79KRqM5nQ-3ivRh-593" value="&lt;font style=&quot;font-size: 18px;&quot;&gt;展示路线详情页面&lt;/font&gt;" style="rounded=1;whiteSpace=wrap;html=1;" parent="T9Qwz79KRqM5nQ-3ivRh-540" vertex="1">
                    <mxGeometry x="40" y="450" width="120" height="60" as="geometry"/>
                </mxCell>
                <mxCell id="T9Qwz79KRqM5nQ-3ivRh-598" value="&lt;span style=&quot;font-size: 18px;&quot;&gt;发送详细规划请求报文&lt;/span&gt;" style="rounded=1;whiteSpace=wrap;html=1;" parent="T9Qwz79KRqM5nQ-3ivRh-540" vertex="1">
                    <mxGeometry x="40" y="550" width="120" height="60" as="geometry"/>
                </mxCell>
                <mxCell id="T9Qwz79KRqM5nQ-3ivRh-606" value="" style="edgeStyle=orthogonalEdgeStyle;rounded=0;orthogonalLoop=1;jettySize=auto;html=1;" parent="T9Qwz79KRqM5nQ-3ivRh-540" source="T9Qwz79KRqM5nQ-3ivRh-603" target="T9Qwz79KRqM5nQ-3ivRh-605" edge="1">
                    <mxGeometry relative="1" as="geometry"/>
                </mxCell>
                <mxCell id="T9Qwz79KRqM5nQ-3ivRh-603" value="&lt;span style=&quot;font-size: 18px;&quot;&gt;展示详细计划页面&lt;/span&gt;" style="rounded=1;whiteSpace=wrap;html=1;" parent="T9Qwz79KRqM5nQ-3ivRh-540" vertex="1">
                    <mxGeometry x="40" y="660" width="120" height="60" as="geometry"/>
                </mxCell>
                <mxCell id="T9Qwz79KRqM5nQ-3ivRh-605" value="" style="ellipse;html=1;shape=endState;fillColor=#000000;strokeColor=#ff0000;" parent="T9Qwz79KRqM5nQ-3ivRh-540" vertex="1">
                    <mxGeometry x="85" y="770" width="30" height="30" as="geometry"/>
                </mxCell>
                <mxCell id="T9Qwz79KRqM5nQ-3ivRh-609" value="&lt;span style=&quot;font-size: 18px;&quot;&gt;展示修改页面&lt;/span&gt;" style="rounded=1;whiteSpace=wrap;html=1;" parent="T9Qwz79KRqM5nQ-3ivRh-540" vertex="1">
                    <mxGeometry x="40" y="840" width="120" height="60" as="geometry"/>
                </mxCell>
                <mxCell id="T9Qwz79KRqM5nQ-3ivRh-618" value="" style="edgeStyle=orthogonalEdgeStyle;rounded=0;orthogonalLoop=1;jettySize=auto;html=1;" parent="T9Qwz79KRqM5nQ-3ivRh-540" source="T9Qwz79KRqM5nQ-3ivRh-612" target="T9Qwz79KRqM5nQ-3ivRh-617" edge="1">
                    <mxGeometry relative="1" as="geometry"/>
                </mxCell>
                <mxCell id="T9Qwz79KRqM5nQ-3ivRh-612" value="&lt;span style=&quot;font-size: 18px;&quot;&gt;更新计划&lt;/span&gt;" style="rounded=1;whiteSpace=wrap;html=1;" parent="T9Qwz79KRqM5nQ-3ivRh-540" vertex="1">
                    <mxGeometry x="40" y="1140" width="120" height="60" as="geometry"/>
                </mxCell>
                <mxCell id="T9Qwz79KRqM5nQ-3ivRh-620" value="" style="edgeStyle=orthogonalEdgeStyle;rounded=0;orthogonalLoop=1;jettySize=auto;html=1;" parent="T9Qwz79KRqM5nQ-3ivRh-540" source="T9Qwz79KRqM5nQ-3ivRh-617" target="T9Qwz79KRqM5nQ-3ivRh-619" edge="1">
                    <mxGeometry relative="1" as="geometry"/>
                </mxCell>
                <mxCell id="T9Qwz79KRqM5nQ-3ivRh-617" value="&lt;span style=&quot;font-size: 18px;&quot;&gt;提示修改成功&lt;/span&gt;" style="rounded=1;whiteSpace=wrap;html=1;" parent="T9Qwz79KRqM5nQ-3ivRh-540" vertex="1">
                    <mxGeometry x="40" y="1240" width="120" height="60" as="geometry"/>
                </mxCell>
                <mxCell id="T9Qwz79KRqM5nQ-3ivRh-619" value="" style="ellipse;html=1;shape=endState;fillColor=#000000;strokeColor=#ff0000;" parent="T9Qwz79KRqM5nQ-3ivRh-540" vertex="1">
                    <mxGeometry x="85" y="1350" width="30" height="30" as="geometry"/>
                </mxCell>
                <mxCell id="T9Qwz79KRqM5nQ-3ivRh-541" value="百度地图" style="swimlane;startSize=20;html=1;" parent="T9Qwz79KRqM5nQ-3ivRh-538" vertex="1">
                    <mxGeometry x="400" y="20" width="200" height="1440" as="geometry"/>
                </mxCell>
                <mxCell id="T9Qwz79KRqM5nQ-3ivRh-594" value="&lt;font style=&quot;font-size: 18px;&quot;&gt;返回路线信息报文&lt;/font&gt;" style="rounded=1;whiteSpace=wrap;html=1;" parent="T9Qwz79KRqM5nQ-3ivRh-541" vertex="1">
                    <mxGeometry x="60" y="340" width="120" height="60" as="geometry"/>
                </mxCell>
                <mxCell id="T9Qwz79KRqM5nQ-3ivRh-542" value="文心一言" style="swimlane;startSize=20;html=1;" parent="T9Qwz79KRqM5nQ-3ivRh-538" vertex="1">
                    <mxGeometry x="600" y="20" width="200" height="1440" as="geometry"/>
                </mxCell>
                <mxCell id="T9Qwz79KRqM5nQ-3ivRh-599" value="&lt;span style=&quot;font-size: 18px;&quot;&gt;返回详细规划报文&lt;/span&gt;" style="rounded=1;whiteSpace=wrap;html=1;" parent="T9Qwz79KRqM5nQ-3ivRh-542" vertex="1">
                    <mxGeometry x="50" y="550" width="120" height="60" as="geometry"/>
                </mxCell>
                <mxCell id="T9Qwz79KRqM5nQ-3ivRh-590" value="" style="edgeStyle=orthogonalEdgeStyle;rounded=0;orthogonalLoop=1;jettySize=auto;html=1;" parent="T9Qwz79KRqM5nQ-3ivRh-538" source="T9Qwz79KRqM5nQ-3ivRh-587" target="T9Qwz79KRqM5nQ-3ivRh-589" edge="1">
                    <mxGeometry relative="1" as="geometry"/>
                </mxCell>
                <mxCell id="T9Qwz79KRqM5nQ-3ivRh-595" value="" style="edgeStyle=orthogonalEdgeStyle;rounded=0;orthogonalLoop=1;jettySize=auto;html=1;" parent="T9Qwz79KRqM5nQ-3ivRh-538" source="T9Qwz79KRqM5nQ-3ivRh-589" target="T9Qwz79KRqM5nQ-3ivRh-594" edge="1">
                    <mxGeometry relative="1" as="geometry"/>
                </mxCell>
                <mxCell id="T9Qwz79KRqM5nQ-3ivRh-596" style="edgeStyle=orthogonalEdgeStyle;rounded=0;orthogonalLoop=1;jettySize=auto;html=1;entryX=1;entryY=0.5;entryDx=0;entryDy=0;" parent="T9Qwz79KRqM5nQ-3ivRh-538" source="T9Qwz79KRqM5nQ-3ivRh-594" target="T9Qwz79KRqM5nQ-3ivRh-593" edge="1">
                    <mxGeometry relative="1" as="geometry">
                        <Array as="points">
                            <mxPoint x="520" y="500"/>
                        </Array>
                    </mxGeometry>
                </mxCell>
                <mxCell id="T9Qwz79KRqM5nQ-3ivRh-597" value="" style="edgeStyle=orthogonalEdgeStyle;rounded=0;orthogonalLoop=1;jettySize=auto;html=1;" parent="T9Qwz79KRqM5nQ-3ivRh-538" source="T9Qwz79KRqM5nQ-3ivRh-593" target="T9Qwz79KRqM5nQ-3ivRh-591" edge="1">
                    <mxGeometry relative="1" as="geometry"/>
                </mxCell>
                <mxCell id="T9Qwz79KRqM5nQ-3ivRh-601" style="edgeStyle=orthogonalEdgeStyle;rounded=0;orthogonalLoop=1;jettySize=auto;html=1;exitX=0.5;exitY=1;exitDx=0;exitDy=0;entryX=0;entryY=0.5;entryDx=0;entryDy=0;" parent="T9Qwz79KRqM5nQ-3ivRh-538" source="T9Qwz79KRqM5nQ-3ivRh-591" target="T9Qwz79KRqM5nQ-3ivRh-598" edge="1">
                    <mxGeometry relative="1" as="geometry"/>
                </mxCell>
                <mxCell id="T9Qwz79KRqM5nQ-3ivRh-602" style="edgeStyle=orthogonalEdgeStyle;rounded=0;orthogonalLoop=1;jettySize=auto;html=1;entryX=0;entryY=0.5;entryDx=0;entryDy=0;" parent="T9Qwz79KRqM5nQ-3ivRh-538" source="T9Qwz79KRqM5nQ-3ivRh-598" target="T9Qwz79KRqM5nQ-3ivRh-599" edge="1">
                    <mxGeometry relative="1" as="geometry"/>
                </mxCell>
                <mxCell id="T9Qwz79KRqM5nQ-3ivRh-604" style="edgeStyle=orthogonalEdgeStyle;rounded=0;orthogonalLoop=1;jettySize=auto;html=1;exitX=0.5;exitY=1;exitDx=0;exitDy=0;entryX=1;entryY=0.5;entryDx=0;entryDy=0;" parent="T9Qwz79KRqM5nQ-3ivRh-538" source="T9Qwz79KRqM5nQ-3ivRh-599" target="T9Qwz79KRqM5nQ-3ivRh-603" edge="1">
                    <mxGeometry relative="1" as="geometry"/>
                </mxCell>
                <mxCell id="T9Qwz79KRqM5nQ-3ivRh-613" value="" style="edgeStyle=orthogonalEdgeStyle;rounded=0;orthogonalLoop=1;jettySize=auto;html=1;" parent="T9Qwz79KRqM5nQ-3ivRh-538" source="T9Qwz79KRqM5nQ-3ivRh-607" target="T9Qwz79KRqM5nQ-3ivRh-609" edge="1">
                    <mxGeometry relative="1" as="geometry"/>
                </mxCell>
                <mxCell id="T9Qwz79KRqM5nQ-3ivRh-614" style="edgeStyle=orthogonalEdgeStyle;rounded=0;orthogonalLoop=1;jettySize=auto;html=1;entryX=1;entryY=0.5;entryDx=0;entryDy=0;" parent="T9Qwz79KRqM5nQ-3ivRh-538" source="T9Qwz79KRqM5nQ-3ivRh-609" target="T9Qwz79KRqM5nQ-3ivRh-610" edge="1">
                    <mxGeometry relative="1" as="geometry">
                        <Array as="points">
                            <mxPoint x="300" y="998"/>
                        </Array>
                    </mxGeometry>
                </mxCell>
                <mxCell id="T9Qwz79KRqM5nQ-3ivRh-616" style="edgeStyle=orthogonalEdgeStyle;rounded=0;orthogonalLoop=1;jettySize=auto;html=1;entryX=0;entryY=0.5;entryDx=0;entryDy=0;" parent="T9Qwz79KRqM5nQ-3ivRh-538" source="T9Qwz79KRqM5nQ-3ivRh-611" target="T9Qwz79KRqM5nQ-3ivRh-612" edge="1">
                    <mxGeometry relative="1" as="geometry">
                        <Array as="points">
                            <mxPoint x="100" y="1190"/>
                        </Array>
                    </mxGeometry>
                </mxCell>
                <mxCell id="T9Qwz79KRqM5nQ-3ivRh-655" value="Pool" style="swimlane;childLayout=stackLayout;resizeParent=1;resizeParentMax=0;startSize=20;html=1;" parent="1" vertex="1">
                    <mxGeometry x="8520" y="1169" width="1160" height="1650" as="geometry"/>
                </mxCell>
                <mxCell id="T9Qwz79KRqM5nQ-3ivRh-656" value="用户" style="swimlane;startSize=20;html=1;" parent="T9Qwz79KRqM5nQ-3ivRh-655" vertex="1">
                    <mxGeometry y="20" width="520" height="1630" as="geometry"/>
                </mxCell>
                <mxCell id="T9Qwz79KRqM5nQ-3ivRh-662" value="" style="edgeStyle=orthogonalEdgeStyle;rounded=0;orthogonalLoop=1;jettySize=auto;html=1;" parent="T9Qwz79KRqM5nQ-3ivRh-656" source="T9Qwz79KRqM5nQ-3ivRh-660" target="T9Qwz79KRqM5nQ-3ivRh-661" edge="1">
                    <mxGeometry relative="1" as="geometry"/>
                </mxCell>
                <mxCell id="T9Qwz79KRqM5nQ-3ivRh-660" value="" style="ellipse;html=1;shape=startState;fillColor=#000000;strokeColor=#ff0000;" parent="T9Qwz79KRqM5nQ-3ivRh-656" vertex="1">
                    <mxGeometry x="236" y="31" width="30" height="30" as="geometry"/>
                </mxCell>
                <mxCell id="T9Qwz79KRqM5nQ-3ivRh-664" value="" style="edgeStyle=orthogonalEdgeStyle;rounded=0;orthogonalLoop=1;jettySize=auto;html=1;" parent="T9Qwz79KRqM5nQ-3ivRh-656" source="T9Qwz79KRqM5nQ-3ivRh-661" target="T9Qwz79KRqM5nQ-3ivRh-663" edge="1">
                    <mxGeometry relative="1" as="geometry"/>
                </mxCell>
                <mxCell id="T9Qwz79KRqM5nQ-3ivRh-661" value="&lt;font style=&quot;font-size: 18px;&quot;&gt;点击客服与反馈&lt;/font&gt;" style="rounded=1;whiteSpace=wrap;html=1;" parent="T9Qwz79KRqM5nQ-3ivRh-656" vertex="1">
                    <mxGeometry x="190" y="90" width="120" height="60" as="geometry"/>
                </mxCell>
                <mxCell id="T9Qwz79KRqM5nQ-3ivRh-671" style="edgeStyle=orthogonalEdgeStyle;rounded=0;orthogonalLoop=1;jettySize=auto;html=1;entryX=0.5;entryY=0;entryDx=0;entryDy=0;" parent="T9Qwz79KRqM5nQ-3ivRh-656" source="T9Qwz79KRqM5nQ-3ivRh-663" target="T9Qwz79KRqM5nQ-3ivRh-667" edge="1">
                    <mxGeometry relative="1" as="geometry"/>
                </mxCell>
                <mxCell id="T9Qwz79KRqM5nQ-3ivRh-672" value="" style="edgeStyle=orthogonalEdgeStyle;rounded=0;orthogonalLoop=1;jettySize=auto;html=1;" parent="T9Qwz79KRqM5nQ-3ivRh-656" source="T9Qwz79KRqM5nQ-3ivRh-663" target="T9Qwz79KRqM5nQ-3ivRh-668" edge="1">
                    <mxGeometry relative="1" as="geometry"/>
                </mxCell>
                <mxCell id="T9Qwz79KRqM5nQ-3ivRh-673" style="edgeStyle=orthogonalEdgeStyle;rounded=0;orthogonalLoop=1;jettySize=auto;html=1;exitX=1;exitY=0.5;exitDx=0;exitDy=0;entryX=0.5;entryY=0;entryDx=0;entryDy=0;" parent="T9Qwz79KRqM5nQ-3ivRh-656" source="T9Qwz79KRqM5nQ-3ivRh-663" target="T9Qwz79KRqM5nQ-3ivRh-666" edge="1">
                    <mxGeometry relative="1" as="geometry"/>
                </mxCell>
                <mxCell id="T9Qwz79KRqM5nQ-3ivRh-663" value="" style="rhombus;whiteSpace=wrap;html=1;" parent="T9Qwz79KRqM5nQ-3ivRh-656" vertex="1">
                    <mxGeometry x="210" y="191" width="80" height="80" as="geometry"/>
                </mxCell>
                <mxCell id="T9Qwz79KRqM5nQ-3ivRh-668" value="&lt;font style=&quot;font-size: 18px;&quot;&gt;点击电话资询&lt;/font&gt;" style="rounded=1;whiteSpace=wrap;html=1;" parent="T9Qwz79KRqM5nQ-3ivRh-656" vertex="1">
                    <mxGeometry x="190" y="411" width="120" height="60" as="geometry"/>
                </mxCell>
                <mxCell id="T9Qwz79KRqM5nQ-3ivRh-667" value="&lt;font style=&quot;font-size: 18px;&quot;&gt;点击热门资讯&lt;/font&gt;" style="rounded=1;whiteSpace=wrap;html=1;" parent="T9Qwz79KRqM5nQ-3ivRh-656" vertex="1">
                    <mxGeometry x="30" y="291" width="120" height="60" as="geometry"/>
                </mxCell>
                <mxCell id="T9Qwz79KRqM5nQ-3ivRh-666" value="&lt;font style=&quot;font-size: 18px;&quot;&gt;点击客服服务&lt;/font&gt;" style="rounded=1;whiteSpace=wrap;html=1;" parent="T9Qwz79KRqM5nQ-3ivRh-656" vertex="1">
                    <mxGeometry x="380" y="521" width="120" height="60" as="geometry"/>
                </mxCell>
                <mxCell id="T9Qwz79KRqM5nQ-3ivRh-702" value="" style="edgeStyle=orthogonalEdgeStyle;rounded=0;orthogonalLoop=1;jettySize=auto;html=1;" parent="T9Qwz79KRqM5nQ-3ivRh-656" source="T9Qwz79KRqM5nQ-3ivRh-695" target="T9Qwz79KRqM5nQ-3ivRh-701" edge="1">
                    <mxGeometry relative="1" as="geometry"/>
                </mxCell>
                <mxCell id="T9Qwz79KRqM5nQ-3ivRh-695" value="&lt;span style=&quot;font-size: 18px;&quot;&gt;与AI客服通话&lt;/span&gt;" style="rounded=1;whiteSpace=wrap;html=1;" parent="T9Qwz79KRqM5nQ-3ivRh-656" vertex="1">
                    <mxGeometry x="190" y="751" width="120" height="60" as="geometry"/>
                </mxCell>
                <mxCell id="T9Qwz79KRqM5nQ-3ivRh-698" value="&lt;span style=&quot;font-size: 18px;&quot;&gt;发送消息&lt;/span&gt;" style="rounded=1;whiteSpace=wrap;html=1;" parent="T9Qwz79KRqM5nQ-3ivRh-656" vertex="1">
                    <mxGeometry x="380" y="1001" width="120" height="60" as="geometry"/>
                </mxCell>
                <mxCell id="T9Qwz79KRqM5nQ-3ivRh-701" value="" style="ellipse;html=1;shape=endState;fillColor=#000000;strokeColor=#ff0000;" parent="T9Qwz79KRqM5nQ-3ivRh-656" vertex="1">
                    <mxGeometry x="236" y="871" width="30" height="30" as="geometry"/>
                </mxCell>
                <mxCell id="T9Qwz79KRqM5nQ-3ivRh-716" style="edgeStyle=orthogonalEdgeStyle;rounded=0;orthogonalLoop=1;jettySize=auto;html=1;exitX=0;exitY=0.5;exitDx=0;exitDy=0;entryX=0;entryY=0.5;entryDx=0;entryDy=0;" parent="T9Qwz79KRqM5nQ-3ivRh-656" source="T9Qwz79KRqM5nQ-3ivRh-713" target="T9Qwz79KRqM5nQ-3ivRh-698" edge="1">
                    <mxGeometry relative="1" as="geometry"/>
                </mxCell>
                <mxCell id="T9Qwz79KRqM5nQ-3ivRh-720" value="" style="edgeStyle=orthogonalEdgeStyle;rounded=0;orthogonalLoop=1;jettySize=auto;html=1;" parent="T9Qwz79KRqM5nQ-3ivRh-656" source="T9Qwz79KRqM5nQ-3ivRh-713" target="T9Qwz79KRqM5nQ-3ivRh-719" edge="1">
                    <mxGeometry relative="1" as="geometry"/>
                </mxCell>
                <mxCell id="T9Qwz79KRqM5nQ-3ivRh-713" value="" style="rhombus;whiteSpace=wrap;html=1;" parent="T9Qwz79KRqM5nQ-3ivRh-656" vertex="1">
                    <mxGeometry x="400" y="1181" width="80" height="80" as="geometry"/>
                </mxCell>
                <mxCell id="T9Qwz79KRqM5nQ-3ivRh-719" value="&lt;font style=&quot;font-size: 18px;&quot;&gt;点击评价客服&lt;/font&gt;" style="rounded=1;whiteSpace=wrap;html=1;" parent="T9Qwz79KRqM5nQ-3ivRh-656" vertex="1">
                    <mxGeometry x="380" y="1311" width="120" height="60" as="geometry"/>
                </mxCell>
                <mxCell id="T9Qwz79KRqM5nQ-3ivRh-723" value="&lt;span style=&quot;font-size: 18px;&quot;&gt;选择评价&lt;/span&gt;" style="rounded=1;whiteSpace=wrap;html=1;" parent="T9Qwz79KRqM5nQ-3ivRh-656" vertex="1">
                    <mxGeometry x="380" y="1411" width="120" height="60" as="geometry"/>
                </mxCell>
                <mxCell id="T9Qwz79KRqM5nQ-3ivRh-657" value="系统" style="swimlane;startSize=20;html=1;" parent="T9Qwz79KRqM5nQ-3ivRh-655" vertex="1">
                    <mxGeometry x="520" y="20" width="240" height="1630" as="geometry"/>
                </mxCell>
                <mxCell id="T9Qwz79KRqM5nQ-3ivRh-677" value="" style="edgeStyle=orthogonalEdgeStyle;rounded=0;orthogonalLoop=1;jettySize=auto;html=1;" parent="T9Qwz79KRqM5nQ-3ivRh-657" source="T9Qwz79KRqM5nQ-3ivRh-674" target="T9Qwz79KRqM5nQ-3ivRh-675" edge="1">
                    <mxGeometry relative="1" as="geometry"/>
                </mxCell>
                <mxCell id="T9Qwz79KRqM5nQ-3ivRh-674" value="&lt;span style=&quot;font-size: 18px;&quot;&gt;判断资讯类型&lt;/span&gt;" style="rounded=1;whiteSpace=wrap;html=1;" parent="T9Qwz79KRqM5nQ-3ivRh-657" vertex="1">
                    <mxGeometry x="60" y="289" width="120" height="60" as="geometry"/>
                </mxCell>
                <mxCell id="T9Qwz79KRqM5nQ-3ivRh-675" value="&lt;span style=&quot;font-size: 18px;&quot;&gt;发送资讯请求报文&lt;/span&gt;" style="rounded=1;whiteSpace=wrap;html=1;" parent="T9Qwz79KRqM5nQ-3ivRh-657" vertex="1">
                    <mxGeometry x="60" y="381" width="120" height="60" as="geometry"/>
                </mxCell>
                <mxCell id="T9Qwz79KRqM5nQ-3ivRh-685" value="" style="edgeStyle=orthogonalEdgeStyle;rounded=0;orthogonalLoop=1;jettySize=auto;html=1;" parent="T9Qwz79KRqM5nQ-3ivRh-657" source="T9Qwz79KRqM5nQ-3ivRh-681" target="T9Qwz79KRqM5nQ-3ivRh-684" edge="1">
                    <mxGeometry relative="1" as="geometry"/>
                </mxCell>
                <mxCell id="T9Qwz79KRqM5nQ-3ivRh-681" value="&lt;font style=&quot;font-size: 18px;&quot;&gt;展示资讯页面&lt;/font&gt;" style="rounded=1;whiteSpace=wrap;html=1;" parent="T9Qwz79KRqM5nQ-3ivRh-657" vertex="1">
                    <mxGeometry x="60" y="471" width="120" height="60" as="geometry"/>
                </mxCell>
                <mxCell id="T9Qwz79KRqM5nQ-3ivRh-684" value="" style="ellipse;html=1;shape=endState;fillColor=#000000;strokeColor=#ff0000;" parent="T9Qwz79KRqM5nQ-3ivRh-657" vertex="1">
                    <mxGeometry x="106" y="561" width="30" height="30" as="geometry"/>
                </mxCell>
                <mxCell id="T9Qwz79KRqM5nQ-3ivRh-686" value="&lt;font style=&quot;font-size: 18px;&quot;&gt;发送通话请求报文&lt;/font&gt;" style="rounded=1;whiteSpace=wrap;html=1;" parent="T9Qwz79KRqM5nQ-3ivRh-657" vertex="1">
                    <mxGeometry x="60" y="641" width="120" height="60" as="geometry"/>
                </mxCell>
                <mxCell id="T9Qwz79KRqM5nQ-3ivRh-692" value="&lt;span style=&quot;font-size: 18px;&quot;&gt;展示通话页面并中继通话&lt;/span&gt;" style="rounded=1;whiteSpace=wrap;html=1;" parent="T9Qwz79KRqM5nQ-3ivRh-657" vertex="1">
                    <mxGeometry x="60" y="751" width="120" height="60" as="geometry"/>
                </mxCell>
                <mxCell id="T9Qwz79KRqM5nQ-3ivRh-700" value="&lt;span style=&quot;font-size: 18px;&quot;&gt;展示聊天界面&lt;/span&gt;" style="rounded=1;whiteSpace=wrap;html=1;" parent="T9Qwz79KRqM5nQ-3ivRh-657" vertex="1">
                    <mxGeometry x="60" y="891" width="120" height="60" as="geometry"/>
                </mxCell>
                <mxCell id="T9Qwz79KRqM5nQ-3ivRh-706" value="&lt;span style=&quot;font-size: 18px;&quot;&gt;发送消息报文&lt;/span&gt;" style="rounded=1;whiteSpace=wrap;html=1;" parent="T9Qwz79KRqM5nQ-3ivRh-657" vertex="1">
                    <mxGeometry x="60" y="1081" width="120" height="60" as="geometry"/>
                </mxCell>
                <mxCell id="T9Qwz79KRqM5nQ-3ivRh-711" value="&lt;span style=&quot;font-size: 18px;&quot;&gt;更新聊天界面&lt;/span&gt;" style="rounded=1;whiteSpace=wrap;html=1;" parent="T9Qwz79KRqM5nQ-3ivRh-657" vertex="1">
                    <mxGeometry x="60" y="1191" width="120" height="60" as="geometry"/>
                </mxCell>
                <mxCell id="T9Qwz79KRqM5nQ-3ivRh-721" value="&lt;font style=&quot;font-size: 18px;&quot;&gt;展示评价客服页面&lt;/font&gt;" style="rounded=1;whiteSpace=wrap;html=1;" parent="T9Qwz79KRqM5nQ-3ivRh-657" vertex="1">
                    <mxGeometry x="61" y="1311" width="120" height="60" as="geometry"/>
                </mxCell>
                <mxCell id="T9Qwz79KRqM5nQ-3ivRh-730" value="" style="edgeStyle=orthogonalEdgeStyle;rounded=0;orthogonalLoop=1;jettySize=auto;html=1;" parent="T9Qwz79KRqM5nQ-3ivRh-657" source="T9Qwz79KRqM5nQ-3ivRh-726" target="T9Qwz79KRqM5nQ-3ivRh-729" edge="1">
                    <mxGeometry relative="1" as="geometry"/>
                </mxCell>
                <mxCell id="T9Qwz79KRqM5nQ-3ivRh-726" value="&lt;span style=&quot;font-size: 18px;&quot;&gt;保存评价信息&lt;/span&gt;" style="rounded=1;whiteSpace=wrap;html=1;" parent="T9Qwz79KRqM5nQ-3ivRh-657" vertex="1">
                    <mxGeometry x="60" y="1481" width="120" height="60" as="geometry"/>
                </mxCell>
                <mxCell id="T9Qwz79KRqM5nQ-3ivRh-729" value="" style="ellipse;html=1;shape=endState;fillColor=#000000;strokeColor=#ff0000;" parent="T9Qwz79KRqM5nQ-3ivRh-657" vertex="1">
                    <mxGeometry x="105" y="1581" width="30" height="30" as="geometry"/>
                </mxCell>
                <mxCell id="T9Qwz79KRqM5nQ-3ivRh-658" value="文心一言" style="swimlane;startSize=20;html=1;" parent="T9Qwz79KRqM5nQ-3ivRh-655" vertex="1">
                    <mxGeometry x="760" y="20" width="200" height="1630" as="geometry"/>
                </mxCell>
                <mxCell id="T9Qwz79KRqM5nQ-3ivRh-678" value="&lt;span style=&quot;font-size: 18px;&quot;&gt;返回资讯报文&lt;/span&gt;" style="rounded=1;whiteSpace=wrap;html=1;" parent="T9Qwz79KRqM5nQ-3ivRh-658" vertex="1">
                    <mxGeometry x="40" y="380" width="120" height="60" as="geometry"/>
                </mxCell>
                <mxCell id="T9Qwz79KRqM5nQ-3ivRh-688" value="&lt;span style=&quot;font-size: 18px;&quot;&gt;建立连接&lt;/span&gt;" style="rounded=1;whiteSpace=wrap;html=1;" parent="T9Qwz79KRqM5nQ-3ivRh-658" vertex="1">
                    <mxGeometry x="40" y="641" width="120" height="60" as="geometry"/>
                </mxCell>
                <mxCell id="T9Qwz79KRqM5nQ-3ivRh-708" value="&lt;span style=&quot;font-size: 18px;&quot;&gt;思考并返回回答报文&lt;/span&gt;" style="rounded=1;whiteSpace=wrap;html=1;" parent="T9Qwz79KRqM5nQ-3ivRh-658" vertex="1">
                    <mxGeometry x="40" y="1081" width="120" height="60" as="geometry"/>
                </mxCell>
                <mxCell id="T9Qwz79KRqM5nQ-3ivRh-659" value="百度地图" style="swimlane;startSize=20;html=1;" parent="T9Qwz79KRqM5nQ-3ivRh-655" vertex="1">
                    <mxGeometry x="960" y="20" width="200" height="1630" as="geometry"/>
                </mxCell>
                <mxCell id="T9Qwz79KRqM5nQ-3ivRh-679" style="edgeStyle=orthogonalEdgeStyle;rounded=0;orthogonalLoop=1;jettySize=auto;html=1;entryX=0;entryY=0.5;entryDx=0;entryDy=0;" parent="T9Qwz79KRqM5nQ-3ivRh-655" source="T9Qwz79KRqM5nQ-3ivRh-667" target="T9Qwz79KRqM5nQ-3ivRh-674" edge="1">
                    <mxGeometry relative="1" as="geometry"/>
                </mxCell>
                <mxCell id="T9Qwz79KRqM5nQ-3ivRh-680" style="edgeStyle=orthogonalEdgeStyle;rounded=0;orthogonalLoop=1;jettySize=auto;html=1;entryX=0;entryY=0.5;entryDx=0;entryDy=0;" parent="T9Qwz79KRqM5nQ-3ivRh-655" source="T9Qwz79KRqM5nQ-3ivRh-675" target="T9Qwz79KRqM5nQ-3ivRh-678" edge="1">
                    <mxGeometry relative="1" as="geometry"/>
                </mxCell>
                <mxCell id="T9Qwz79KRqM5nQ-3ivRh-683" style="edgeStyle=orthogonalEdgeStyle;rounded=0;orthogonalLoop=1;jettySize=auto;html=1;entryX=1;entryY=0.5;entryDx=0;entryDy=0;" parent="T9Qwz79KRqM5nQ-3ivRh-655" source="T9Qwz79KRqM5nQ-3ivRh-678" target="T9Qwz79KRqM5nQ-3ivRh-681" edge="1">
                    <mxGeometry relative="1" as="geometry">
                        <Array as="points">
                            <mxPoint x="940" y="430"/>
                            <mxPoint x="940" y="521"/>
                        </Array>
                    </mxGeometry>
                </mxCell>
                <mxCell id="T9Qwz79KRqM5nQ-3ivRh-689" value="" style="edgeStyle=orthogonalEdgeStyle;rounded=0;orthogonalLoop=1;jettySize=auto;html=1;" parent="T9Qwz79KRqM5nQ-3ivRh-655" source="T9Qwz79KRqM5nQ-3ivRh-686" target="T9Qwz79KRqM5nQ-3ivRh-688" edge="1">
                    <mxGeometry relative="1" as="geometry"/>
                </mxCell>
                <mxCell id="T9Qwz79KRqM5nQ-3ivRh-690" style="edgeStyle=orthogonalEdgeStyle;rounded=0;orthogonalLoop=1;jettySize=auto;html=1;entryX=0;entryY=0.5;entryDx=0;entryDy=0;" parent="T9Qwz79KRqM5nQ-3ivRh-655" source="T9Qwz79KRqM5nQ-3ivRh-668" target="T9Qwz79KRqM5nQ-3ivRh-686" edge="1">
                    <mxGeometry relative="1" as="geometry">
                        <Array as="points">
                            <mxPoint x="250" y="691"/>
                        </Array>
                    </mxGeometry>
                </mxCell>
                <mxCell id="T9Qwz79KRqM5nQ-3ivRh-694" style="edgeStyle=orthogonalEdgeStyle;rounded=0;orthogonalLoop=1;jettySize=auto;html=1;exitX=1;exitY=0.5;exitDx=0;exitDy=0;entryX=1;entryY=0.5;entryDx=0;entryDy=0;" parent="T9Qwz79KRqM5nQ-3ivRh-655" source="T9Qwz79KRqM5nQ-3ivRh-688" target="T9Qwz79KRqM5nQ-3ivRh-692" edge="1">
                    <mxGeometry relative="1" as="geometry"/>
                </mxCell>
                <mxCell id="T9Qwz79KRqM5nQ-3ivRh-696" style="edgeStyle=orthogonalEdgeStyle;rounded=0;orthogonalLoop=1;jettySize=auto;html=1;" parent="T9Qwz79KRqM5nQ-3ivRh-655" source="T9Qwz79KRqM5nQ-3ivRh-692" target="T9Qwz79KRqM5nQ-3ivRh-695" edge="1">
                    <mxGeometry relative="1" as="geometry"/>
                </mxCell>
                <mxCell id="T9Qwz79KRqM5nQ-3ivRh-704" style="edgeStyle=orthogonalEdgeStyle;rounded=0;orthogonalLoop=1;jettySize=auto;html=1;entryX=0;entryY=0.5;entryDx=0;entryDy=0;" parent="T9Qwz79KRqM5nQ-3ivRh-655" source="T9Qwz79KRqM5nQ-3ivRh-666" target="T9Qwz79KRqM5nQ-3ivRh-700" edge="1">
                    <mxGeometry relative="1" as="geometry">
                        <Array as="points">
                            <mxPoint x="440" y="941"/>
                        </Array>
                    </mxGeometry>
                </mxCell>
                <mxCell id="T9Qwz79KRqM5nQ-3ivRh-705" style="edgeStyle=orthogonalEdgeStyle;rounded=0;orthogonalLoop=1;jettySize=auto;html=1;entryX=1;entryY=0.5;entryDx=0;entryDy=0;" parent="T9Qwz79KRqM5nQ-3ivRh-655" source="T9Qwz79KRqM5nQ-3ivRh-700" target="T9Qwz79KRqM5nQ-3ivRh-698" edge="1">
                    <mxGeometry relative="1" as="geometry">
                        <Array as="points">
                            <mxPoint x="640" y="1051"/>
                        </Array>
                    </mxGeometry>
                </mxCell>
                <mxCell id="T9Qwz79KRqM5nQ-3ivRh-707" style="edgeStyle=orthogonalEdgeStyle;rounded=0;orthogonalLoop=1;jettySize=auto;html=1;entryX=0;entryY=0.5;entryDx=0;entryDy=0;" parent="T9Qwz79KRqM5nQ-3ivRh-655" source="T9Qwz79KRqM5nQ-3ivRh-698" target="T9Qwz79KRqM5nQ-3ivRh-706" edge="1">
                    <mxGeometry relative="1" as="geometry">
                        <Array as="points">
                            <mxPoint x="440" y="1131"/>
                        </Array>
                    </mxGeometry>
                </mxCell>
                <mxCell id="T9Qwz79KRqM5nQ-3ivRh-709" value="" style="edgeStyle=orthogonalEdgeStyle;rounded=0;orthogonalLoop=1;jettySize=auto;html=1;" parent="T9Qwz79KRqM5nQ-3ivRh-655" source="T9Qwz79KRqM5nQ-3ivRh-706" target="T9Qwz79KRqM5nQ-3ivRh-708" edge="1">
                    <mxGeometry relative="1" as="geometry"/>
                </mxCell>
                <mxCell id="T9Qwz79KRqM5nQ-3ivRh-712" style="edgeStyle=orthogonalEdgeStyle;rounded=0;orthogonalLoop=1;jettySize=auto;html=1;entryX=1;entryY=0.5;entryDx=0;entryDy=0;" parent="T9Qwz79KRqM5nQ-3ivRh-655" source="T9Qwz79KRqM5nQ-3ivRh-708" target="T9Qwz79KRqM5nQ-3ivRh-711" edge="1">
                    <mxGeometry relative="1" as="geometry">
                        <Array as="points">
                            <mxPoint x="860" y="1241"/>
                        </Array>
                    </mxGeometry>
                </mxCell>
                <mxCell id="T9Qwz79KRqM5nQ-3ivRh-714" value="" style="edgeStyle=orthogonalEdgeStyle;rounded=0;orthogonalLoop=1;jettySize=auto;html=1;" parent="T9Qwz79KRqM5nQ-3ivRh-655" source="T9Qwz79KRqM5nQ-3ivRh-711" target="T9Qwz79KRqM5nQ-3ivRh-713" edge="1">
                    <mxGeometry relative="1" as="geometry"/>
                </mxCell>
                <mxCell id="T9Qwz79KRqM5nQ-3ivRh-722" value="" style="edgeStyle=orthogonalEdgeStyle;rounded=0;orthogonalLoop=1;jettySize=auto;html=1;" parent="T9Qwz79KRqM5nQ-3ivRh-655" source="T9Qwz79KRqM5nQ-3ivRh-719" target="T9Qwz79KRqM5nQ-3ivRh-721" edge="1">
                    <mxGeometry relative="1" as="geometry"/>
                </mxCell>
                <mxCell id="T9Qwz79KRqM5nQ-3ivRh-725" style="edgeStyle=orthogonalEdgeStyle;rounded=0;orthogonalLoop=1;jettySize=auto;html=1;entryX=1;entryY=0.5;entryDx=0;entryDy=0;" parent="T9Qwz79KRqM5nQ-3ivRh-655" source="T9Qwz79KRqM5nQ-3ivRh-721" target="T9Qwz79KRqM5nQ-3ivRh-723" edge="1">
                    <mxGeometry relative="1" as="geometry">
                        <Array as="points">
                            <mxPoint x="641" y="1461"/>
                        </Array>
                    </mxGeometry>
                </mxCell>
                <mxCell id="T9Qwz79KRqM5nQ-3ivRh-727" style="edgeStyle=orthogonalEdgeStyle;rounded=0;orthogonalLoop=1;jettySize=auto;html=1;entryX=0;entryY=0.5;entryDx=0;entryDy=0;" parent="T9Qwz79KRqM5nQ-3ivRh-655" source="T9Qwz79KRqM5nQ-3ivRh-723" target="T9Qwz79KRqM5nQ-3ivRh-726" edge="1">
                    <mxGeometry relative="1" as="geometry">
                        <Array as="points">
                            <mxPoint x="440" y="1531"/>
                        </Array>
                    </mxGeometry>
                </mxCell>
                <mxCell id="T9Qwz79KRqM5nQ-3ivRh-731" value="&lt;font style=&quot;font-size: 24px;&quot;&gt;登入&lt;/font&gt;" style="rounded=1;whiteSpace=wrap;html=1;fillColor=#000000;strokeColor=#001DBC;fontColor=#ffffff;" parent="1" vertex="1">
                    <mxGeometry x="850" y="1040" width="180" height="60" as="geometry"/>
                </mxCell>
                <mxCell id="T9Qwz79KRqM5nQ-3ivRh-732" value="&lt;font style=&quot;font-size: 24px;&quot;&gt;定制路线及天气预报&lt;/font&gt;" style="rounded=1;whiteSpace=wrap;html=1;fillColor=#000000;strokeColor=#001DBC;fontColor=#ffffff;" parent="1" vertex="1">
                    <mxGeometry x="2830" y="970" width="180" height="60" as="geometry"/>
                </mxCell>
                <mxCell id="T9Qwz79KRqM5nQ-3ivRh-733" value="&lt;span style=&quot;font-size: 24px;&quot;&gt;紧急事件处理&lt;/span&gt;" style="rounded=1;whiteSpace=wrap;html=1;fillColor=#000000;strokeColor=#001DBC;fontColor=#ffffff;" parent="1" vertex="1">
                    <mxGeometry x="4220" y="960" width="180" height="60" as="geometry"/>
                </mxCell>
                <mxCell id="T9Qwz79KRqM5nQ-3ivRh-735" value="&lt;span style=&quot;font-size: 24px;&quot;&gt;我的行程&lt;/span&gt;" style="rounded=1;whiteSpace=wrap;html=1;fillColor=#000000;strokeColor=#001DBC;fontColor=#ffffff;" parent="1" vertex="1">
                    <mxGeometry x="6950" y="970" width="180" height="60" as="geometry"/>
                </mxCell>
                <mxCell id="T9Qwz79KRqM5nQ-3ivRh-736" value="&lt;span style=&quot;font-size: 24px;&quot;&gt;客服与反馈&lt;/span&gt;" style="rounded=1;whiteSpace=wrap;html=1;fillColor=#000000;strokeColor=#001DBC;fontColor=#ffffff;" parent="1" vertex="1">
                    <mxGeometry x="9010" y="960" width="180" height="60" as="geometry"/>
                </mxCell>
            </root>
        </mxGraphModel>
    </diagram>
</mxfile>